<mxfile host="app.diagrams.net" agent="Mozilla/5.0 (Windows NT 10.0; Win64; x64) AppleWebKit/537.36 (KHTML, like Gecko) Chrome/138.0.0.0 Safari/537.36" version="28.0.6">
  <diagram id="C5RBs43oDa-KdzZeNtuy" name="Page-1">
    <mxGraphModel dx="3432" dy="1605" grid="1" gridSize="10" guides="1" tooltips="1" connect="1" arrows="1" fold="1" page="1" pageScale="1" pageWidth="827" pageHeight="1169" math="0" shadow="0">
      <root>
        <mxCell id="WIyWlLk6GJQsqaUBKTNV-0" />
        <mxCell id="WIyWlLk6GJQsqaUBKTNV-1" parent="WIyWlLk6GJQsqaUBKTNV-0" />
        <mxCell id="M7CGMbNuYNeq0SnUNNgH-6" value="ทบทวนสัญลักษณ์" style="swimlane;fontFamily=Sarabun;fontSource=https%3A%2F%2Ffonts.googleapis.com%2Fcss%3Ffamily%3DSarabun;" parent="WIyWlLk6GJQsqaUBKTNV-1" vertex="1">
          <mxGeometry x="-720" y="20" width="640" height="290" as="geometry" />
        </mxCell>
        <mxCell id="M7CGMbNuYNeq0SnUNNgH-2" value="&lt;font data-font-src=&quot;https://fonts.googleapis.com/css?family=Sarabun&quot; face=&quot;Sarabun&quot;&gt;เริ่มต้น&lt;/font&gt;" style="ellipse;whiteSpace=wrap;html=1;" parent="M7CGMbNuYNeq0SnUNNgH-6" vertex="1">
          <mxGeometry x="20" y="40" width="130" height="30" as="geometry" />
        </mxCell>
        <mxCell id="M7CGMbNuYNeq0SnUNNgH-5" value="" style="endArrow=classic;html=1;rounded=0;" parent="M7CGMbNuYNeq0SnUNNgH-6" edge="1">
          <mxGeometry width="50" height="50" relative="1" as="geometry">
            <mxPoint x="84.5" y="70" as="sourcePoint" />
            <mxPoint x="84.5" y="120" as="targetPoint" />
          </mxGeometry>
        </mxCell>
        <mxCell id="M7CGMbNuYNeq0SnUNNgH-3" value="&lt;font face=&quot;Sarabun&quot;&gt;สิ้นสุด&lt;/font&gt;" style="ellipse;whiteSpace=wrap;html=1;" parent="M7CGMbNuYNeq0SnUNNgH-6" vertex="1">
          <mxGeometry x="150" y="90" width="130" height="30" as="geometry" />
        </mxCell>
        <mxCell id="M7CGMbNuYNeq0SnUNNgH-4" value="" style="endArrow=classic;html=1;rounded=0;" parent="M7CGMbNuYNeq0SnUNNgH-6" edge="1">
          <mxGeometry width="50" height="50" relative="1" as="geometry">
            <mxPoint x="214.5" y="40" as="sourcePoint" />
            <mxPoint x="214.5" y="90" as="targetPoint" />
          </mxGeometry>
        </mxCell>
        <mxCell id="mvioNwK95yMqdUQ73LqQ-0" value="กระบวนการ" style="rounded=0;whiteSpace=wrap;html=1;fontFamily=Sarabun;fontSource=https%3A%2F%2Ffonts.googleapis.com%2Fcss%3Ffamily%3DSarabun;" parent="M7CGMbNuYNeq0SnUNNgH-6" vertex="1">
          <mxGeometry x="320" y="70" width="120" height="30" as="geometry" />
        </mxCell>
        <mxCell id="mvioNwK95yMqdUQ73LqQ-1" value="" style="endArrow=classic;html=1;rounded=0;" parent="M7CGMbNuYNeq0SnUNNgH-6" edge="1">
          <mxGeometry width="50" height="50" relative="1" as="geometry">
            <mxPoint x="379" y="40" as="sourcePoint" />
            <mxPoint x="379.5" y="70" as="targetPoint" />
          </mxGeometry>
        </mxCell>
        <mxCell id="mvioNwK95yMqdUQ73LqQ-2" value="" style="endArrow=classic;html=1;rounded=0;" parent="M7CGMbNuYNeq0SnUNNgH-6" edge="1">
          <mxGeometry width="50" height="50" relative="1" as="geometry">
            <mxPoint x="379.75" y="100" as="sourcePoint" />
            <mxPoint x="380.25" y="130" as="targetPoint" />
          </mxGeometry>
        </mxCell>
        <mxCell id="mvioNwK95yMqdUQ73LqQ-3" value="ประโยคเงื่อนไข" style="rhombus;whiteSpace=wrap;html=1;fontFamily=Sarabun;fontSource=https%3A%2F%2Ffonts.googleapis.com%2Fcss%3Ffamily%3DSarabun;" parent="M7CGMbNuYNeq0SnUNNgH-6" vertex="1">
          <mxGeometry x="490" y="60" width="100" height="60" as="geometry" />
        </mxCell>
        <mxCell id="mvioNwK95yMqdUQ73LqQ-4" value="" style="endArrow=classic;html=1;rounded=0;" parent="M7CGMbNuYNeq0SnUNNgH-6" edge="1">
          <mxGeometry width="50" height="50" relative="1" as="geometry">
            <mxPoint x="539.71" y="30" as="sourcePoint" />
            <mxPoint x="540.21" y="60" as="targetPoint" />
          </mxGeometry>
        </mxCell>
        <mxCell id="mvioNwK95yMqdUQ73LqQ-5" value="" style="endArrow=classic;html=1;rounded=0;" parent="M7CGMbNuYNeq0SnUNNgH-6" edge="1">
          <mxGeometry width="50" height="50" relative="1" as="geometry">
            <mxPoint x="539.71" y="120" as="sourcePoint" />
            <mxPoint x="540" y="175" as="targetPoint" />
          </mxGeometry>
        </mxCell>
        <mxCell id="mvioNwK95yMqdUQ73LqQ-7" value="จริง" style="edgeLabel;html=1;align=center;verticalAlign=middle;resizable=0;points=[];fontFamily=Sarabun;fontSource=https%3A%2F%2Ffonts.googleapis.com%2Fcss%3Ffamily%3DSarabun;" parent="mvioNwK95yMqdUQ73LqQ-5" vertex="1" connectable="0">
          <mxGeometry x="-0.4142" y="-1" relative="1" as="geometry">
            <mxPoint as="offset" />
          </mxGeometry>
        </mxCell>
        <mxCell id="mvioNwK95yMqdUQ73LqQ-6" value="" style="endArrow=classic;html=1;rounded=0;exitX=1;exitY=0.5;exitDx=0;exitDy=0;" parent="M7CGMbNuYNeq0SnUNNgH-6" source="mvioNwK95yMqdUQ73LqQ-3" edge="1">
          <mxGeometry width="50" height="50" relative="1" as="geometry">
            <mxPoint x="620" y="95" as="sourcePoint" />
            <mxPoint x="610" y="175" as="targetPoint" />
            <Array as="points">
              <mxPoint x="610" y="90" />
            </Array>
          </mxGeometry>
        </mxCell>
        <mxCell id="mvioNwK95yMqdUQ73LqQ-8" value="&lt;font data-font-src=&quot;https://fonts.googleapis.com/css?family=Sarabun&quot; face=&quot;Sarabun&quot;&gt;เท็จ&lt;/font&gt;" style="edgeLabel;html=1;align=center;verticalAlign=middle;resizable=0;points=[];" parent="mvioNwK95yMqdUQ73LqQ-6" vertex="1" connectable="0">
          <mxGeometry x="-0.0019" y="-2" relative="1" as="geometry">
            <mxPoint as="offset" />
          </mxGeometry>
        </mxCell>
        <mxCell id="mvioNwK95yMqdUQ73LqQ-9" value="&lt;font data-font-src=&quot;https://fonts.googleapis.com/css?family=Sarabun&quot; face=&quot;Sarabun&quot;&gt;ฟังก์ชัน/โมดูล&lt;/font&gt;" style="shape=process;whiteSpace=wrap;html=1;backgroundOutline=1;" parent="M7CGMbNuYNeq0SnUNNgH-6" vertex="1">
          <mxGeometry x="25" y="180" width="120" height="30" as="geometry" />
        </mxCell>
        <mxCell id="mvioNwK95yMqdUQ73LqQ-11" value="" style="endArrow=classic;html=1;rounded=0;" parent="M7CGMbNuYNeq0SnUNNgH-6" edge="1">
          <mxGeometry width="50" height="50" relative="1" as="geometry">
            <mxPoint x="84.70999999999998" y="150" as="sourcePoint" />
            <mxPoint x="85.20999999999998" y="180" as="targetPoint" />
          </mxGeometry>
        </mxCell>
        <mxCell id="mvioNwK95yMqdUQ73LqQ-12" value="" style="endArrow=classic;html=1;rounded=0;" parent="M7CGMbNuYNeq0SnUNNgH-6" edge="1">
          <mxGeometry width="50" height="50" relative="1" as="geometry">
            <mxPoint x="84.70999999999998" y="210" as="sourcePoint" />
            <mxPoint x="85.20999999999998" y="240" as="targetPoint" />
          </mxGeometry>
        </mxCell>
        <mxCell id="mvioNwK95yMqdUQ73LqQ-13" value="" style="strokeWidth=2;html=1;shape=mxgraph.flowchart.start_2;whiteSpace=wrap;" parent="M7CGMbNuYNeq0SnUNNgH-6" vertex="1">
          <mxGeometry x="205" y="185" width="20" height="20" as="geometry" />
        </mxCell>
        <mxCell id="mvioNwK95yMqdUQ73LqQ-16" value="" style="endArrow=classic;html=1;rounded=0;" parent="M7CGMbNuYNeq0SnUNNgH-6" edge="1">
          <mxGeometry width="50" height="50" relative="1" as="geometry">
            <mxPoint x="214.70999999999998" y="155" as="sourcePoint" />
            <mxPoint x="215.20999999999998" y="185" as="targetPoint" />
          </mxGeometry>
        </mxCell>
        <mxCell id="mvioNwK95yMqdUQ73LqQ-17" value="" style="endArrow=classic;html=1;rounded=0;entryX=0;entryY=0.5;entryDx=0;entryDy=0;entryPerimeter=0;" parent="M7CGMbNuYNeq0SnUNNgH-6" target="mvioNwK95yMqdUQ73LqQ-13" edge="1">
          <mxGeometry width="50" height="50" relative="1" as="geometry">
            <mxPoint x="189.99999999999997" y="155" as="sourcePoint" />
            <mxPoint x="190.49999999999997" y="185" as="targetPoint" />
            <Array as="points">
              <mxPoint x="190" y="180" />
            </Array>
          </mxGeometry>
        </mxCell>
        <mxCell id="mvioNwK95yMqdUQ73LqQ-18" value="" style="endArrow=classic;html=1;rounded=0;entryX=1;entryY=0.5;entryDx=0;entryDy=0;entryPerimeter=0;" parent="M7CGMbNuYNeq0SnUNNgH-6" target="mvioNwK95yMqdUQ73LqQ-13" edge="1">
          <mxGeometry width="50" height="50" relative="1" as="geometry">
            <mxPoint x="239.99999999999997" y="155" as="sourcePoint" />
            <mxPoint x="240.49999999999997" y="185" as="targetPoint" />
            <Array as="points">
              <mxPoint x="240" y="180" />
            </Array>
          </mxGeometry>
        </mxCell>
        <mxCell id="mvioNwK95yMqdUQ73LqQ-19" value="" style="endArrow=classic;html=1;rounded=0;" parent="M7CGMbNuYNeq0SnUNNgH-6" edge="1">
          <mxGeometry width="50" height="50" relative="1" as="geometry">
            <mxPoint x="214.70999999999998" y="205" as="sourcePoint" />
            <mxPoint x="215.20999999999998" y="235" as="targetPoint" />
          </mxGeometry>
        </mxCell>
        <mxCell id="mvioNwK95yMqdUQ73LqQ-20" value="&lt;font data-font-src=&quot;https://fonts.googleapis.com/css?family=Sarabun&quot; face=&quot;Sarabun&quot;&gt;ตัวเชื่อม&lt;/font&gt;" style="text;html=1;align=center;verticalAlign=middle;resizable=0;points=[];autosize=1;strokeColor=none;fillColor=none;" parent="M7CGMbNuYNeq0SnUNNgH-6" vertex="1">
          <mxGeometry x="220" y="190" width="60" height="30" as="geometry" />
        </mxCell>
        <mxCell id="mvioNwK95yMqdUQ73LqQ-25" value="" style="endArrow=classic;html=1;rounded=0;" parent="M7CGMbNuYNeq0SnUNNgH-6" edge="1">
          <mxGeometry width="50" height="50" relative="1" as="geometry">
            <mxPoint x="353.71" y="165" as="sourcePoint" />
            <mxPoint x="354.21" y="195" as="targetPoint" />
          </mxGeometry>
        </mxCell>
        <mxCell id="mvioNwK95yMqdUQ73LqQ-21" value="" style="verticalLabelPosition=bottom;verticalAlign=top;html=1;shape=offPageConnector;rounded=0;size=0.5;" parent="M7CGMbNuYNeq0SnUNNgH-6" vertex="1">
          <mxGeometry x="339" y="195" width="30" height="30" as="geometry" />
        </mxCell>
        <mxCell id="mvioNwK95yMqdUQ73LqQ-26" value="" style="endArrow=classic;html=1;rounded=0;" parent="M7CGMbNuYNeq0SnUNNgH-6" edge="1">
          <mxGeometry width="50" height="50" relative="1" as="geometry">
            <mxPoint x="405.71" y="195" as="sourcePoint" />
            <mxPoint x="406.21" y="225" as="targetPoint" />
          </mxGeometry>
        </mxCell>
        <mxCell id="mvioNwK95yMqdUQ73LqQ-27" value="" style="verticalLabelPosition=bottom;verticalAlign=top;html=1;shape=offPageConnector;rounded=0;size=0.5;" parent="M7CGMbNuYNeq0SnUNNgH-6" vertex="1">
          <mxGeometry x="391" y="165" width="30" height="30" as="geometry" />
        </mxCell>
        <mxCell id="mvioNwK95yMqdUQ73LqQ-28" value="หน้าต่อไป" style="text;html=1;align=center;verticalAlign=middle;resizable=0;points=[];autosize=1;strokeColor=none;fillColor=none;fontFamily=Sarabun;fontSource=https%3A%2F%2Ffonts.googleapis.com%2Fcss%3Ffamily%3DSarabun;" parent="M7CGMbNuYNeq0SnUNNgH-6" vertex="1">
          <mxGeometry x="345" y="220" width="70" height="30" as="geometry" />
        </mxCell>
        <mxCell id="mvioNwK95yMqdUQ73LqQ-29" value="ก" style="text;html=1;align=center;verticalAlign=middle;resizable=0;points=[];autosize=1;strokeColor=none;fillColor=none;fontFamily=Sarabun;fontSource=https%3A%2F%2Ffonts.googleapis.com%2Fcss%3Ffamily%3DSarabun;" parent="M7CGMbNuYNeq0SnUNNgH-6" vertex="1">
          <mxGeometry x="339" y="190" width="30" height="30" as="geometry" />
        </mxCell>
        <mxCell id="mvioNwK95yMqdUQ73LqQ-30" value="ก" style="text;html=1;align=center;verticalAlign=middle;resizable=0;points=[];autosize=1;strokeColor=none;fillColor=none;fontFamily=Sarabun;fontSource=https%3A%2F%2Ffonts.googleapis.com%2Fcss%3Ffamily%3DSarabun;" parent="M7CGMbNuYNeq0SnUNNgH-6" vertex="1">
          <mxGeometry x="391" y="160" width="30" height="30" as="geometry" />
        </mxCell>
        <mxCell id="mvioNwK95yMqdUQ73LqQ-32" value="แสดงผล/รับค่า" style="shape=parallelogram;perimeter=parallelogramPerimeter;whiteSpace=wrap;html=1;fixedSize=1;fontFamily=Sarabun;fontSource=https%3A%2F%2Ffonts.googleapis.com%2Fcss%3Ffamily%3DSarabun;" parent="M7CGMbNuYNeq0SnUNNgH-6" vertex="1">
          <mxGeometry x="450" y="210" width="120" height="30" as="geometry" />
        </mxCell>
        <mxCell id="mvioNwK95yMqdUQ73LqQ-33" value="" style="endArrow=classic;html=1;rounded=0;" parent="M7CGMbNuYNeq0SnUNNgH-6" edge="1">
          <mxGeometry width="50" height="50" relative="1" as="geometry">
            <mxPoint x="509.71" y="180" as="sourcePoint" />
            <mxPoint x="510.21" y="210" as="targetPoint" />
          </mxGeometry>
        </mxCell>
        <mxCell id="mvioNwK95yMqdUQ73LqQ-34" value="" style="endArrow=classic;html=1;rounded=0;" parent="M7CGMbNuYNeq0SnUNNgH-6" edge="1">
          <mxGeometry width="50" height="50" relative="1" as="geometry">
            <mxPoint x="509.71" y="240" as="sourcePoint" />
            <mxPoint x="510.21" y="270" as="targetPoint" />
          </mxGeometry>
        </mxCell>
        <mxCell id="mvioNwK95yMqdUQ73LqQ-70" value="&lt;font data-font-src=&quot;https://fonts.googleapis.com/css?family=Sarabun&quot; face=&quot;Sarabun&quot;&gt;โจทย์ปัญหา&lt;/font&gt;" style="swimlane;whiteSpace=wrap;html=1;" parent="WIyWlLk6GJQsqaUBKTNV-1" vertex="1">
          <mxGeometry x="-720" y="320" width="640" height="240" as="geometry" />
        </mxCell>
        <mxCell id="mvioNwK95yMqdUQ73LqQ-71" value="&lt;font data-font-src=&quot;https://fonts.googleapis.com/css?family=Sarabun&quot; face=&quot;Sarabun&quot; style=&quot;font-size: 14px;&quot;&gt;จงเขียน Flowchart เพื่อแสดงขั้นตอนการทำงาน ของเครื่องขายน้ำอัตโนมัติที่ชื่อว่า &quot;ตะพาบลอย&quot;&lt;br&gt;โดยจะต้องมีสินค้าดังนี้&lt;br&gt;&lt;u&gt;ประเภทน้ำ&lt;span style=&quot;white-space: pre;&quot;&gt;&#x9;&lt;/span&gt;&lt;span style=&quot;white-space: pre;&quot;&gt;&#x9;&lt;/span&gt;&lt;span style=&quot;white-space: pre;&quot;&gt;&#x9;&lt;/span&gt;&lt;span style=&quot;white-space: pre;&quot;&gt;&#x9;&lt;/span&gt;&lt;span style=&quot;white-space: pre;&quot;&gt;&#x9;&lt;/span&gt;&lt;span style=&quot;white-space: pre;&quot;&gt;&#x9;&lt;span style=&quot;white-space: pre;&quot;&gt;&#x9;&lt;/span&gt;ข&lt;/span&gt;นม&lt;/u&gt;&lt;br&gt;&lt;span style=&quot;white-space: pre;&quot;&gt;&#x9;&lt;/span&gt;- โค้ก กระป๋องละ 10 บาท&lt;span style=&quot;white-space: pre;&quot;&gt;&#x9;&lt;/span&gt;&lt;span style=&quot;white-space: pre;&quot;&gt;&#x9;&lt;/span&gt;&lt;span style=&quot;white-space: pre;&quot;&gt;&#x9;&lt;/span&gt;&lt;span style=&quot;white-space: pre;&quot;&gt;&#x9;&lt;/span&gt;- เมล็ดทานตะวัน 13 บาท&lt;br&gt;&lt;span style=&quot;white-space: pre;&quot;&gt;&#x9;&lt;/span&gt;- น้ำเขียว กระป๋องละ 12 บาท&lt;span style=&quot;white-space: pre;&quot;&gt;&#x9;&lt;/span&gt;&lt;span style=&quot;white-space: pre;&quot;&gt;&#x9;&lt;/span&gt;&lt;span style=&quot;white-space: pre;&quot;&gt;&#x9;&lt;/span&gt;- ถั่วแปบ 20 บาท&lt;br&gt;&lt;span style=&quot;white-space: pre;&quot;&gt;&#x9;&lt;/span&gt;- อเมริกาโน่ 30 บาท&lt;span style=&quot;white-space: pre;&quot;&gt;&#x9;&lt;/span&gt;&lt;span style=&quot;white-space: pre;&quot;&gt;&#x9;&lt;/span&gt;&lt;span style=&quot;white-space: pre;&quot;&gt;&#x9;&lt;/span&gt;&lt;span style=&quot;white-space: pre;&quot;&gt;&#x9;&lt;/span&gt;&lt;span style=&quot;white-space: pre;&quot;&gt;&#x9;&lt;/span&gt;- จิ้นส้มหมก 15 บาท&lt;br&gt;&lt;span style=&quot;white-space: pre;&quot;&gt;&#x9;&lt;/span&gt;- ลาเต้ หวานเจี๊ยบ 35 บาท&lt;span style=&quot;white-space: pre;&quot;&gt;&#x9;&lt;/span&gt;&lt;br&gt;&lt;br&gt;&lt;u&gt;สิ่งที่ระบบควรจะทำได้&lt;/u&gt;&lt;br&gt;&lt;span style=&quot;white-space: pre;&quot;&gt;&#x9;&lt;/span&gt;- ลูกค้าเลือกสินค้า, ระบบจะต้องรวมยอดขาย และรวมรายการสินค้าทั้งหมดที่ลูกค้าเลือก&lt;br&gt;&lt;span style=&quot;white-space: pre;&quot;&gt;&#x9;&lt;/span&gt;- สรุปยอดว่าเหลือเงินในตู้อีกเท่าไหร่ เหลือเหรียญอะไรบ้าง? ธนบัตรอะไรบ้าง? อย่างละเท่าไหร่?&lt;br&gt;&lt;br&gt;&lt;br&gt;&lt;/font&gt;" style="text;html=1;align=left;verticalAlign=middle;resizable=0;points=[];autosize=1;strokeColor=none;fillColor=none;fontSize=14;" parent="mvioNwK95yMqdUQ73LqQ-70" vertex="1">
          <mxGeometry x="25" y="30" width="580" height="240" as="geometry" />
        </mxCell>
        <mxCell id="SD3mACNuw7I6ulbQ2JE7-184" value="" style="edgeStyle=orthogonalEdgeStyle;rounded=0;orthogonalLoop=1;jettySize=auto;html=1;" parent="WIyWlLk6GJQsqaUBKTNV-1" source="mvioNwK95yMqdUQ73LqQ-35" target="SD3mACNuw7I6ulbQ2JE7-183" edge="1">
          <mxGeometry relative="1" as="geometry" />
        </mxCell>
        <mxCell id="mvioNwK95yMqdUQ73LqQ-35" value="&lt;font data-font-src=&quot;https://fonts.googleapis.com/css?family=Sarabun&quot; face=&quot;Sarabun&quot;&gt;เริ่มต้น&lt;/font&gt;" style="ellipse;whiteSpace=wrap;html=1;" parent="WIyWlLk6GJQsqaUBKTNV-1" vertex="1">
          <mxGeometry x="-466" y="600" width="130" height="30" as="geometry" />
        </mxCell>
        <mxCell id="V9kbop6HQoNJyVFFNIBV-155" value="" style="edgeStyle=orthogonalEdgeStyle;rounded=0;orthogonalLoop=1;jettySize=auto;html=1;" edge="1" parent="WIyWlLk6GJQsqaUBKTNV-1" source="SD3mACNuw7I6ulbQ2JE7-0" target="V9kbop6HQoNJyVFFNIBV-151">
          <mxGeometry relative="1" as="geometry" />
        </mxCell>
        <mxCell id="SD3mACNuw7I6ulbQ2JE7-0" value="เหรียญ 1&lt;div&gt;= 30 เหรียญ&lt;/div&gt;" style="rounded=0;whiteSpace=wrap;html=1;" parent="WIyWlLk6GJQsqaUBKTNV-1" vertex="1">
          <mxGeometry x="1114.5" y="1330" width="90" height="40" as="geometry" />
        </mxCell>
        <mxCell id="V9kbop6HQoNJyVFFNIBV-157" value="" style="edgeStyle=orthogonalEdgeStyle;rounded=0;orthogonalLoop=1;jettySize=auto;html=1;" edge="1" parent="WIyWlLk6GJQsqaUBKTNV-1" source="SD3mACNuw7I6ulbQ2JE7-4" target="V9kbop6HQoNJyVFFNIBV-153">
          <mxGeometry relative="1" as="geometry" />
        </mxCell>
        <mxCell id="SD3mACNuw7I6ulbQ2JE7-4" value="เหรียญ 5&lt;div&gt;= 30 เหรียญ&lt;/div&gt;" style="rounded=0;whiteSpace=wrap;html=1;" parent="WIyWlLk6GJQsqaUBKTNV-1" vertex="1">
          <mxGeometry x="1114.5" y="1530" width="90" height="40" as="geometry" />
        </mxCell>
        <mxCell id="V9kbop6HQoNJyVFFNIBV-158" value="" style="edgeStyle=orthogonalEdgeStyle;rounded=0;orthogonalLoop=1;jettySize=auto;html=1;" edge="1" parent="WIyWlLk6GJQsqaUBKTNV-1" source="SD3mACNuw7I6ulbQ2JE7-5" target="V9kbop6HQoNJyVFFNIBV-154">
          <mxGeometry relative="1" as="geometry" />
        </mxCell>
        <mxCell id="SD3mACNuw7I6ulbQ2JE7-5" value="เหรียญ 10&lt;div&gt;= 30 เหรียญ&lt;/div&gt;" style="rounded=0;whiteSpace=wrap;html=1;" parent="WIyWlLk6GJQsqaUBKTNV-1" vertex="1">
          <mxGeometry x="1114.5" y="1631" width="90" height="40" as="geometry" />
        </mxCell>
        <mxCell id="SD3mACNuw7I6ulbQ2JE7-6" value="" style="ellipse;whiteSpace=wrap;html=1;aspect=fixed;" parent="WIyWlLk6GJQsqaUBKTNV-1" vertex="1">
          <mxGeometry x="-399.75" y="906" width="20" height="20" as="geometry" />
        </mxCell>
        <mxCell id="V9kbop6HQoNJyVFFNIBV-129" value="" style="edgeStyle=orthogonalEdgeStyle;rounded=0;orthogonalLoop=1;jettySize=auto;html=1;" edge="1" parent="WIyWlLk6GJQsqaUBKTNV-1" source="SD3mACNuw7I6ulbQ2JE7-7" target="V9kbop6HQoNJyVFFNIBV-124">
          <mxGeometry relative="1" as="geometry" />
        </mxCell>
        <mxCell id="SD3mACNuw7I6ulbQ2JE7-7" value="&lt;div&gt;แบงค์ 20&lt;/div&gt;&lt;div&gt;&lt;span style=&quot;background-color: transparent; color: light-dark(rgb(0, 0, 0), rgb(255, 255, 255));&quot;&gt;= 50 แบงค์&lt;/span&gt;&lt;/div&gt;" style="rounded=0;whiteSpace=wrap;html=1;" parent="WIyWlLk6GJQsqaUBKTNV-1" vertex="1">
          <mxGeometry x="603.5" y="1330" width="90" height="40" as="geometry" />
        </mxCell>
        <mxCell id="V9kbop6HQoNJyVFFNIBV-127" value="" style="edgeStyle=orthogonalEdgeStyle;rounded=0;orthogonalLoop=1;jettySize=auto;html=1;" edge="1" parent="WIyWlLk6GJQsqaUBKTNV-1" source="SD3mACNuw7I6ulbQ2JE7-8" target="V9kbop6HQoNJyVFFNIBV-126">
          <mxGeometry relative="1" as="geometry" />
        </mxCell>
        <mxCell id="SD3mACNuw7I6ulbQ2JE7-8" value="&lt;div&gt;แบงค์ 50&lt;/div&gt;&lt;div&gt;= 40 แบงค์&lt;/div&gt;" style="rounded=0;whiteSpace=wrap;html=1;" parent="WIyWlLk6GJQsqaUBKTNV-1" vertex="1">
          <mxGeometry x="603.5" y="1435" width="90" height="40" as="geometry" />
        </mxCell>
        <mxCell id="V9kbop6HQoNJyVFFNIBV-135" value="" style="edgeStyle=orthogonalEdgeStyle;rounded=0;orthogonalLoop=1;jettySize=auto;html=1;" edge="1" parent="WIyWlLk6GJQsqaUBKTNV-1" source="SD3mACNuw7I6ulbQ2JE7-9" target="V9kbop6HQoNJyVFFNIBV-132">
          <mxGeometry relative="1" as="geometry" />
        </mxCell>
        <mxCell id="SD3mACNuw7I6ulbQ2JE7-9" value="&lt;div&gt;แบงค์ 100&lt;/div&gt;&lt;div&gt;= 30 แบงค์&lt;/div&gt;" style="rounded=0;whiteSpace=wrap;html=1;" parent="WIyWlLk6GJQsqaUBKTNV-1" vertex="1">
          <mxGeometry x="603.5" y="1538.5" width="90" height="40" as="geometry" />
        </mxCell>
        <mxCell id="SD3mACNuw7I6ulbQ2JE7-188" style="edgeStyle=orthogonalEdgeStyle;rounded=0;orthogonalLoop=1;jettySize=auto;html=1;entryX=0.5;entryY=0;entryDx=0;entryDy=0;" parent="WIyWlLk6GJQsqaUBKTNV-1" source="SD3mACNuw7I6ulbQ2JE7-54" target="SD3mACNuw7I6ulbQ2JE7-187" edge="1">
          <mxGeometry relative="1" as="geometry" />
        </mxCell>
        <mxCell id="SD3mACNuw7I6ulbQ2JE7-54" value="" style="shape=parallelogram;perimeter=parallelogramPerimeter;whiteSpace=wrap;html=1;fixedSize=1;align=left;" parent="WIyWlLk6GJQsqaUBKTNV-1" vertex="1">
          <mxGeometry x="-588.75" y="709" width="377.5" height="225" as="geometry" />
        </mxCell>
        <mxCell id="SD3mACNuw7I6ulbQ2JE7-56" value="&lt;h1 style=&quot;margin-top: 0px;&quot;&gt;&lt;font style=&quot;font-size: 20px;&quot;&gt;&amp;nbsp; สินค้า&lt;/font&gt;&lt;/h1&gt;&lt;div&gt;&lt;font style=&quot;font-size: 18px;&quot;&gt;&amp;nbsp; ประเภทน้ำ&lt;/font&gt;&lt;/div&gt;&lt;div&gt;&lt;font style=&quot;font-size: 20px;&quot;&gt;&lt;br&gt;&lt;/font&gt;&lt;/div&gt;&lt;div&gt;&lt;font style=&quot;font-size: 14px;&quot;&gt;โค้กกระป๋อง 10 บาท&lt;/font&gt;&lt;/div&gt;&lt;div&gt;&lt;font style=&quot;font-size: 14px;&quot;&gt;น้ำเขียวกระป๋อง 12 บาท&lt;/font&gt;&lt;/div&gt;&lt;div&gt;&lt;font style=&quot;font-size: 14px;&quot;&gt;อเมริกาโน่ 30 บาท&lt;/font&gt;&lt;/div&gt;&lt;div&gt;&lt;font style=&quot;font-size: 14px;&quot;&gt;ลาเต้หวานเจี๊ยบ 35 บาท&lt;/font&gt;&lt;/div&gt;" style="text;html=1;whiteSpace=wrap;overflow=hidden;rounded=0;" parent="WIyWlLk6GJQsqaUBKTNV-1" vertex="1">
          <mxGeometry x="-571.75" y="725" width="159.75" height="179" as="geometry" />
        </mxCell>
        <mxCell id="SD3mACNuw7I6ulbQ2JE7-57" value="&lt;h1 style=&quot;margin-top: 0px;&quot;&gt;&lt;span style=&quot;font-size: 18px; background-color: transparent; color: light-dark(rgb(0, 0, 0), rgb(255, 255, 255)); font-weight: normal;&quot;&gt;ประเภทขนม&lt;/span&gt;&lt;/h1&gt;&lt;div&gt;&lt;span style=&quot;font-size: 14px;&quot;&gt;เมล็ดทานตะวัน 13 บาท&lt;/span&gt;&lt;/div&gt;&lt;div&gt;&lt;span style=&quot;font-size: 14px;&quot;&gt;ถั่วแปบ 20 บาท&lt;/span&gt;&lt;/div&gt;&lt;div&gt;&lt;span style=&quot;font-size: 14px;&quot;&gt;จิ้นส้มหมก 15 บาท&lt;/span&gt;&lt;/div&gt;" style="text;html=1;whiteSpace=wrap;overflow=hidden;rounded=0;" parent="WIyWlLk6GJQsqaUBKTNV-1" vertex="1">
          <mxGeometry x="-359.75" y="760.5" width="155" height="195" as="geometry" />
        </mxCell>
        <mxCell id="SD3mACNuw7I6ulbQ2JE7-75" value="" style="edgeStyle=orthogonalEdgeStyle;rounded=0;orthogonalLoop=1;jettySize=auto;html=1;" parent="WIyWlLk6GJQsqaUBKTNV-1" source="SD3mACNuw7I6ulbQ2JE7-58" target="SD3mACNuw7I6ulbQ2JE7-74" edge="1">
          <mxGeometry relative="1" as="geometry" />
        </mxCell>
        <mxCell id="SD3mACNuw7I6ulbQ2JE7-80" value="" style="edgeStyle=orthogonalEdgeStyle;rounded=0;orthogonalLoop=1;jettySize=auto;html=1;" parent="WIyWlLk6GJQsqaUBKTNV-1" source="SD3mACNuw7I6ulbQ2JE7-58" target="SD3mACNuw7I6ulbQ2JE7-0" edge="1">
          <mxGeometry relative="1" as="geometry" />
        </mxCell>
        <mxCell id="SD3mACNuw7I6ulbQ2JE7-58" value="เหรียญ 1 บาท&lt;div&gt;มั้ย&lt;/div&gt;" style="rhombus;whiteSpace=wrap;html=1;" parent="WIyWlLk6GJQsqaUBKTNV-1" vertex="1">
          <mxGeometry x="983.5" y="1310" width="80" height="80" as="geometry" />
        </mxCell>
        <mxCell id="SD3mACNuw7I6ulbQ2JE7-82" value="" style="edgeStyle=orthogonalEdgeStyle;rounded=0;orthogonalLoop=1;jettySize=auto;html=1;" parent="WIyWlLk6GJQsqaUBKTNV-1" source="SD3mACNuw7I6ulbQ2JE7-60" target="SD3mACNuw7I6ulbQ2JE7-4" edge="1">
          <mxGeometry relative="1" as="geometry" />
        </mxCell>
        <mxCell id="V9kbop6HQoNJyVFFNIBV-16" style="edgeStyle=orthogonalEdgeStyle;rounded=0;orthogonalLoop=1;jettySize=auto;html=1;entryX=0;entryY=0.5;entryDx=0;entryDy=0;" edge="1" parent="WIyWlLk6GJQsqaUBKTNV-1" source="SD3mACNuw7I6ulbQ2JE7-60" target="SD3mACNuw7I6ulbQ2JE7-5">
          <mxGeometry relative="1" as="geometry">
            <Array as="points">
              <mxPoint x="1023.5" y="1651" />
            </Array>
          </mxGeometry>
        </mxCell>
        <mxCell id="SD3mACNuw7I6ulbQ2JE7-60" value="เหรียญ 5 บาท&lt;div&gt;มั้ย&lt;/div&gt;" style="rhombus;whiteSpace=wrap;html=1;" parent="WIyWlLk6GJQsqaUBKTNV-1" vertex="1">
          <mxGeometry x="983.5" y="1510" width="80" height="80" as="geometry" />
        </mxCell>
        <mxCell id="SD3mACNuw7I6ulbQ2JE7-68" value="" style="edgeStyle=orthogonalEdgeStyle;rounded=0;orthogonalLoop=1;jettySize=auto;html=1;" parent="WIyWlLk6GJQsqaUBKTNV-1" source="SD3mACNuw7I6ulbQ2JE7-62" target="SD3mACNuw7I6ulbQ2JE7-66" edge="1">
          <mxGeometry relative="1" as="geometry" />
        </mxCell>
        <mxCell id="SD3mACNuw7I6ulbQ2JE7-84" value="" style="edgeStyle=orthogonalEdgeStyle;rounded=0;orthogonalLoop=1;jettySize=auto;html=1;" parent="WIyWlLk6GJQsqaUBKTNV-1" source="SD3mACNuw7I6ulbQ2JE7-62" target="SD3mACNuw7I6ulbQ2JE7-7" edge="1">
          <mxGeometry relative="1" as="geometry" />
        </mxCell>
        <mxCell id="SD3mACNuw7I6ulbQ2JE7-62" value="แบงค์ 20 บาท&lt;div&gt;มั้ย&lt;/div&gt;" style="rhombus;whiteSpace=wrap;html=1;" parent="WIyWlLk6GJQsqaUBKTNV-1" vertex="1">
          <mxGeometry x="743.5" y="1310" width="80" height="80" as="geometry" />
        </mxCell>
        <mxCell id="SD3mACNuw7I6ulbQ2JE7-69" value="" style="edgeStyle=orthogonalEdgeStyle;rounded=0;orthogonalLoop=1;jettySize=auto;html=1;" parent="WIyWlLk6GJQsqaUBKTNV-1" source="SD3mACNuw7I6ulbQ2JE7-66" target="SD3mACNuw7I6ulbQ2JE7-67" edge="1">
          <mxGeometry relative="1" as="geometry" />
        </mxCell>
        <mxCell id="V9kbop6HQoNJyVFFNIBV-128" value="" style="edgeStyle=orthogonalEdgeStyle;rounded=0;orthogonalLoop=1;jettySize=auto;html=1;" edge="1" parent="WIyWlLk6GJQsqaUBKTNV-1" source="SD3mACNuw7I6ulbQ2JE7-66" target="SD3mACNuw7I6ulbQ2JE7-8">
          <mxGeometry relative="1" as="geometry" />
        </mxCell>
        <mxCell id="SD3mACNuw7I6ulbQ2JE7-66" value="แบงค์ 50 บาท&lt;div&gt;มั้ย&lt;/div&gt;" style="rhombus;whiteSpace=wrap;html=1;" parent="WIyWlLk6GJQsqaUBKTNV-1" vertex="1">
          <mxGeometry x="743.5" y="1415" width="80" height="80" as="geometry" />
        </mxCell>
        <mxCell id="SD3mACNuw7I6ulbQ2JE7-71" value="" style="edgeStyle=orthogonalEdgeStyle;rounded=0;orthogonalLoop=1;jettySize=auto;html=1;" parent="WIyWlLk6GJQsqaUBKTNV-1" source="SD3mACNuw7I6ulbQ2JE7-67" target="SD3mACNuw7I6ulbQ2JE7-70" edge="1">
          <mxGeometry relative="1" as="geometry" />
        </mxCell>
        <mxCell id="SD3mACNuw7I6ulbQ2JE7-86" value="" style="edgeStyle=orthogonalEdgeStyle;rounded=0;orthogonalLoop=1;jettySize=auto;html=1;" parent="WIyWlLk6GJQsqaUBKTNV-1" source="SD3mACNuw7I6ulbQ2JE7-67" target="SD3mACNuw7I6ulbQ2JE7-9" edge="1">
          <mxGeometry relative="1" as="geometry" />
        </mxCell>
        <mxCell id="SD3mACNuw7I6ulbQ2JE7-67" value="แบงค์ 100 บาท&lt;div&gt;มั้ย&lt;/div&gt;" style="rhombus;whiteSpace=wrap;html=1;" parent="WIyWlLk6GJQsqaUBKTNV-1" vertex="1">
          <mxGeometry x="743.5" y="1518.5" width="80" height="80" as="geometry" />
        </mxCell>
        <mxCell id="SD3mACNuw7I6ulbQ2JE7-87" value="" style="edgeStyle=orthogonalEdgeStyle;rounded=0;orthogonalLoop=1;jettySize=auto;html=1;" parent="WIyWlLk6GJQsqaUBKTNV-1" source="SD3mACNuw7I6ulbQ2JE7-70" target="SD3mACNuw7I6ulbQ2JE7-78" edge="1">
          <mxGeometry relative="1" as="geometry" />
        </mxCell>
        <mxCell id="V9kbop6HQoNJyVFFNIBV-4" style="edgeStyle=orthogonalEdgeStyle;rounded=0;orthogonalLoop=1;jettySize=auto;html=1;entryX=1;entryY=0.5;entryDx=0;entryDy=0;" edge="1" parent="WIyWlLk6GJQsqaUBKTNV-1" source="SD3mACNuw7I6ulbQ2JE7-70" target="SD3mACNuw7I6ulbQ2JE7-79">
          <mxGeometry relative="1" as="geometry">
            <Array as="points">
              <mxPoint x="783.5" y="1776" />
            </Array>
          </mxGeometry>
        </mxCell>
        <mxCell id="SD3mACNuw7I6ulbQ2JE7-70" value="แบงค์ 500 บาท&lt;div&gt;มั้ย&lt;/div&gt;" style="rhombus;whiteSpace=wrap;html=1;" parent="WIyWlLk6GJQsqaUBKTNV-1" vertex="1">
          <mxGeometry x="743.5" y="1626" width="80" height="80" as="geometry" />
        </mxCell>
        <mxCell id="SD3mACNuw7I6ulbQ2JE7-76" value="" style="edgeStyle=orthogonalEdgeStyle;rounded=0;orthogonalLoop=1;jettySize=auto;html=1;" parent="WIyWlLk6GJQsqaUBKTNV-1" source="SD3mACNuw7I6ulbQ2JE7-74" target="SD3mACNuw7I6ulbQ2JE7-60" edge="1">
          <mxGeometry relative="1" as="geometry" />
        </mxCell>
        <mxCell id="SD3mACNuw7I6ulbQ2JE7-81" value="" style="edgeStyle=orthogonalEdgeStyle;rounded=0;orthogonalLoop=1;jettySize=auto;html=1;" parent="WIyWlLk6GJQsqaUBKTNV-1" source="SD3mACNuw7I6ulbQ2JE7-74" target="SD3mACNuw7I6ulbQ2JE7-77" edge="1">
          <mxGeometry relative="1" as="geometry" />
        </mxCell>
        <mxCell id="SD3mACNuw7I6ulbQ2JE7-74" value="เหรียญ 2 บาท&lt;div&gt;มั้ย&lt;/div&gt;" style="rhombus;whiteSpace=wrap;html=1;" parent="WIyWlLk6GJQsqaUBKTNV-1" vertex="1">
          <mxGeometry x="983.5" y="1410" width="80" height="80" as="geometry" />
        </mxCell>
        <mxCell id="V9kbop6HQoNJyVFFNIBV-156" value="" style="edgeStyle=orthogonalEdgeStyle;rounded=0;orthogonalLoop=1;jettySize=auto;html=1;" edge="1" parent="WIyWlLk6GJQsqaUBKTNV-1" source="SD3mACNuw7I6ulbQ2JE7-77" target="V9kbop6HQoNJyVFFNIBV-152">
          <mxGeometry relative="1" as="geometry" />
        </mxCell>
        <mxCell id="SD3mACNuw7I6ulbQ2JE7-77" value="เหรียญ 2&lt;div&gt;= 30 เหรียญ&lt;/div&gt;" style="rounded=0;whiteSpace=wrap;html=1;" parent="WIyWlLk6GJQsqaUBKTNV-1" vertex="1">
          <mxGeometry x="1114.5" y="1430" width="90" height="40" as="geometry" />
        </mxCell>
        <mxCell id="V9kbop6HQoNJyVFFNIBV-136" value="" style="edgeStyle=orthogonalEdgeStyle;rounded=0;orthogonalLoop=1;jettySize=auto;html=1;" edge="1" parent="WIyWlLk6GJQsqaUBKTNV-1" source="SD3mACNuw7I6ulbQ2JE7-78" target="V9kbop6HQoNJyVFFNIBV-133">
          <mxGeometry relative="1" as="geometry" />
        </mxCell>
        <mxCell id="SD3mACNuw7I6ulbQ2JE7-78" value="&lt;div&gt;แบงค์ 500&lt;/div&gt;&lt;div&gt;= 20 แบงค์&lt;/div&gt;" style="rounded=0;whiteSpace=wrap;html=1;" parent="WIyWlLk6GJQsqaUBKTNV-1" vertex="1">
          <mxGeometry x="603.5" y="1646" width="90" height="40" as="geometry" />
        </mxCell>
        <mxCell id="V9kbop6HQoNJyVFFNIBV-137" value="" style="edgeStyle=orthogonalEdgeStyle;rounded=0;orthogonalLoop=1;jettySize=auto;html=1;" edge="1" parent="WIyWlLk6GJQsqaUBKTNV-1" source="SD3mACNuw7I6ulbQ2JE7-79" target="V9kbop6HQoNJyVFFNIBV-134">
          <mxGeometry relative="1" as="geometry" />
        </mxCell>
        <mxCell id="SD3mACNuw7I6ulbQ2JE7-79" value="&lt;div&gt;แบงค์ 1000&lt;/div&gt;&lt;div&gt;= 10 แบงค์&lt;/div&gt;" style="rounded=0;whiteSpace=wrap;html=1;" parent="WIyWlLk6GJQsqaUBKTNV-1" vertex="1">
          <mxGeometry x="603.5" y="1756" width="90" height="40" as="geometry" />
        </mxCell>
        <mxCell id="SD3mACNuw7I6ulbQ2JE7-94" value="" style="edgeStyle=orthogonalEdgeStyle;rounded=0;orthogonalLoop=1;jettySize=auto;html=1;" parent="WIyWlLk6GJQsqaUBKTNV-1" source="SD3mACNuw7I6ulbQ2JE7-89" target="SD3mACNuw7I6ulbQ2JE7-58" edge="1">
          <mxGeometry relative="1" as="geometry" />
        </mxCell>
        <mxCell id="SD3mACNuw7I6ulbQ2JE7-95" value="" style="edgeStyle=orthogonalEdgeStyle;rounded=0;orthogonalLoop=1;jettySize=auto;html=1;" parent="WIyWlLk6GJQsqaUBKTNV-1" source="SD3mACNuw7I6ulbQ2JE7-89" target="SD3mACNuw7I6ulbQ2JE7-62" edge="1">
          <mxGeometry relative="1" as="geometry" />
        </mxCell>
        <mxCell id="SD3mACNuw7I6ulbQ2JE7-89" value="เหรียญ&lt;div&gt;ใช่มั้ย&lt;/div&gt;" style="rhombus;whiteSpace=wrap;html=1;" parent="WIyWlLk6GJQsqaUBKTNV-1" vertex="1">
          <mxGeometry x="863.5" y="1310" width="80" height="80" as="geometry" />
        </mxCell>
        <mxCell id="SD3mACNuw7I6ulbQ2JE7-96" value="" style="edgeStyle=orthogonalEdgeStyle;rounded=0;orthogonalLoop=1;jettySize=auto;html=1;" parent="WIyWlLk6GJQsqaUBKTNV-1" source="SD3mACNuw7I6ulbQ2JE7-90" target="SD3mACNuw7I6ulbQ2JE7-91" edge="1">
          <mxGeometry relative="1" as="geometry" />
        </mxCell>
        <mxCell id="SD3mACNuw7I6ulbQ2JE7-90" value="&lt;font size=&quot;1&quot;&gt;&lt;b&gt;เช็คเงิน&lt;/b&gt;&lt;/font&gt;" style="shape=process;whiteSpace=wrap;html=1;backgroundOutline=1;" parent="WIyWlLk6GJQsqaUBKTNV-1" vertex="1">
          <mxGeometry x="853.5" y="1130" width="100" height="40" as="geometry" />
        </mxCell>
        <mxCell id="SD3mACNuw7I6ulbQ2JE7-93" value="" style="edgeStyle=orthogonalEdgeStyle;rounded=0;orthogonalLoop=1;jettySize=auto;html=1;" parent="WIyWlLk6GJQsqaUBKTNV-1" source="SD3mACNuw7I6ulbQ2JE7-91" target="SD3mACNuw7I6ulbQ2JE7-89" edge="1">
          <mxGeometry relative="1" as="geometry" />
        </mxCell>
        <mxCell id="SD3mACNuw7I6ulbQ2JE7-91" value="start" style="ellipse;whiteSpace=wrap;html=1;" parent="WIyWlLk6GJQsqaUBKTNV-1" vertex="1">
          <mxGeometry x="858.5" y="1224" width="90" height="40" as="geometry" />
        </mxCell>
        <mxCell id="SD3mACNuw7I6ulbQ2JE7-92" value="stop" style="ellipse;whiteSpace=wrap;html=1;" parent="WIyWlLk6GJQsqaUBKTNV-1" vertex="1">
          <mxGeometry x="868.5" y="1950" width="100" height="50" as="geometry" />
        </mxCell>
        <mxCell id="SD3mACNuw7I6ulbQ2JE7-97" value="yes" style="text;html=1;align=center;verticalAlign=middle;whiteSpace=wrap;rounded=0;" parent="WIyWlLk6GJQsqaUBKTNV-1" vertex="1">
          <mxGeometry x="923.5" y="1315" width="60" height="30" as="geometry" />
        </mxCell>
        <mxCell id="SD3mACNuw7I6ulbQ2JE7-98" value="no" style="text;html=1;align=center;verticalAlign=middle;whiteSpace=wrap;rounded=0;" parent="WIyWlLk6GJQsqaUBKTNV-1" vertex="1">
          <mxGeometry x="823.5" y="1315" width="60" height="30" as="geometry" />
        </mxCell>
        <mxCell id="SD3mACNuw7I6ulbQ2JE7-105" value="&lt;font size=&quot;1&quot;&gt;&lt;b&gt;เช็คเงิน&lt;/b&gt;&lt;/font&gt;" style="shape=process;whiteSpace=wrap;html=1;backgroundOutline=1;" parent="WIyWlLk6GJQsqaUBKTNV-1" vertex="1">
          <mxGeometry x="-450" y="1862" width="100" height="40" as="geometry" />
        </mxCell>
        <mxCell id="V9kbop6HQoNJyVFFNIBV-36" value="" style="edgeStyle=orthogonalEdgeStyle;rounded=0;orthogonalLoop=1;jettySize=auto;html=1;" edge="1" parent="WIyWlLk6GJQsqaUBKTNV-1" source="SD3mACNuw7I6ulbQ2JE7-108" target="V9kbop6HQoNJyVFFNIBV-35">
          <mxGeometry relative="1" as="geometry" />
        </mxCell>
        <mxCell id="SD3mACNuw7I6ulbQ2JE7-108" value="&lt;font size=&quot;1&quot;&gt;&lt;b&gt;สินค้า&lt;/b&gt;&lt;/font&gt;" style="shape=process;whiteSpace=wrap;html=1;backgroundOutline=1;" parent="WIyWlLk6GJQsqaUBKTNV-1" vertex="1">
          <mxGeometry x="-450" y="1055" width="100" height="40" as="geometry" />
        </mxCell>
        <mxCell id="SD3mACNuw7I6ulbQ2JE7-114" value="" style="edgeStyle=orthogonalEdgeStyle;rounded=0;orthogonalLoop=1;jettySize=auto;html=1;" parent="WIyWlLk6GJQsqaUBKTNV-1" source="SD3mACNuw7I6ulbQ2JE7-112" target="SD3mACNuw7I6ulbQ2JE7-113" edge="1">
          <mxGeometry relative="1" as="geometry" />
        </mxCell>
        <mxCell id="SD3mACNuw7I6ulbQ2JE7-112" value="&lt;font size=&quot;1&quot;&gt;&lt;b&gt;สินค้า&lt;/b&gt;&lt;/font&gt;" style="shape=process;whiteSpace=wrap;html=1;backgroundOutline=1;" parent="WIyWlLk6GJQsqaUBKTNV-1" vertex="1">
          <mxGeometry x="854" y="150" width="100" height="40" as="geometry" />
        </mxCell>
        <mxCell id="SD3mACNuw7I6ulbQ2JE7-116" value="" style="edgeStyle=orthogonalEdgeStyle;rounded=0;orthogonalLoop=1;jettySize=auto;html=1;" parent="WIyWlLk6GJQsqaUBKTNV-1" source="SD3mACNuw7I6ulbQ2JE7-113" target="SD3mACNuw7I6ulbQ2JE7-115" edge="1">
          <mxGeometry relative="1" as="geometry" />
        </mxCell>
        <mxCell id="SD3mACNuw7I6ulbQ2JE7-113" value="start" style="ellipse;whiteSpace=wrap;html=1;" parent="WIyWlLk6GJQsqaUBKTNV-1" vertex="1">
          <mxGeometry x="861.5" y="236" width="85" height="45" as="geometry" />
        </mxCell>
        <mxCell id="SD3mACNuw7I6ulbQ2JE7-119" value="" style="edgeStyle=orthogonalEdgeStyle;rounded=0;orthogonalLoop=1;jettySize=auto;html=1;" parent="WIyWlLk6GJQsqaUBKTNV-1" source="SD3mACNuw7I6ulbQ2JE7-115" target="SD3mACNuw7I6ulbQ2JE7-118" edge="1">
          <mxGeometry relative="1" as="geometry" />
        </mxCell>
        <mxCell id="SD3mACNuw7I6ulbQ2JE7-120" value="" style="edgeStyle=orthogonalEdgeStyle;rounded=0;orthogonalLoop=1;jettySize=auto;html=1;" parent="WIyWlLk6GJQsqaUBKTNV-1" source="SD3mACNuw7I6ulbQ2JE7-115" target="SD3mACNuw7I6ulbQ2JE7-117" edge="1">
          <mxGeometry relative="1" as="geometry" />
        </mxCell>
        <mxCell id="SD3mACNuw7I6ulbQ2JE7-115" value="ประเภทขนมใช่มั้ย" style="rhombus;whiteSpace=wrap;html=1;" parent="WIyWlLk6GJQsqaUBKTNV-1" vertex="1">
          <mxGeometry x="864" y="323" width="80" height="80" as="geometry" />
        </mxCell>
        <mxCell id="SD3mACNuw7I6ulbQ2JE7-129" value="" style="edgeStyle=orthogonalEdgeStyle;rounded=0;orthogonalLoop=1;jettySize=auto;html=1;" parent="WIyWlLk6GJQsqaUBKTNV-1" source="SD3mACNuw7I6ulbQ2JE7-117" target="SD3mACNuw7I6ulbQ2JE7-127" edge="1">
          <mxGeometry relative="1" as="geometry" />
        </mxCell>
        <mxCell id="SD3mACNuw7I6ulbQ2JE7-145" value="" style="edgeStyle=orthogonalEdgeStyle;rounded=0;orthogonalLoop=1;jettySize=auto;html=1;" parent="WIyWlLk6GJQsqaUBKTNV-1" source="SD3mACNuw7I6ulbQ2JE7-117" target="SD3mACNuw7I6ulbQ2JE7-142" edge="1">
          <mxGeometry relative="1" as="geometry" />
        </mxCell>
        <mxCell id="SD3mACNuw7I6ulbQ2JE7-117" value="เมล็ดทานตะวัน&lt;div&gt;มั้ย&lt;/div&gt;" style="rhombus;whiteSpace=wrap;html=1;" parent="WIyWlLk6GJQsqaUBKTNV-1" vertex="1">
          <mxGeometry x="1005" y="323" width="80" height="80" as="geometry" />
        </mxCell>
        <mxCell id="SD3mACNuw7I6ulbQ2JE7-123" value="" style="edgeStyle=orthogonalEdgeStyle;rounded=0;orthogonalLoop=1;jettySize=auto;html=1;" parent="WIyWlLk6GJQsqaUBKTNV-1" source="SD3mACNuw7I6ulbQ2JE7-118" target="SD3mACNuw7I6ulbQ2JE7-121" edge="1">
          <mxGeometry relative="1" as="geometry" />
        </mxCell>
        <mxCell id="SD3mACNuw7I6ulbQ2JE7-138" value="" style="edgeStyle=orthogonalEdgeStyle;rounded=0;orthogonalLoop=1;jettySize=auto;html=1;" parent="WIyWlLk6GJQsqaUBKTNV-1" source="SD3mACNuw7I6ulbQ2JE7-118" target="SD3mACNuw7I6ulbQ2JE7-134" edge="1">
          <mxGeometry relative="1" as="geometry" />
        </mxCell>
        <mxCell id="SD3mACNuw7I6ulbQ2JE7-118" value="โค้กใช่มั้ย" style="rhombus;whiteSpace=wrap;html=1;" parent="WIyWlLk6GJQsqaUBKTNV-1" vertex="1">
          <mxGeometry x="724" y="323" width="80" height="80" as="geometry" />
        </mxCell>
        <mxCell id="SD3mACNuw7I6ulbQ2JE7-124" value="" style="edgeStyle=orthogonalEdgeStyle;rounded=0;orthogonalLoop=1;jettySize=auto;html=1;" parent="WIyWlLk6GJQsqaUBKTNV-1" source="SD3mACNuw7I6ulbQ2JE7-121" target="SD3mACNuw7I6ulbQ2JE7-122" edge="1">
          <mxGeometry relative="1" as="geometry" />
        </mxCell>
        <mxCell id="SD3mACNuw7I6ulbQ2JE7-139" value="" style="edgeStyle=orthogonalEdgeStyle;rounded=0;orthogonalLoop=1;jettySize=auto;html=1;" parent="WIyWlLk6GJQsqaUBKTNV-1" source="SD3mACNuw7I6ulbQ2JE7-121" target="SD3mACNuw7I6ulbQ2JE7-135" edge="1">
          <mxGeometry relative="1" as="geometry" />
        </mxCell>
        <mxCell id="SD3mACNuw7I6ulbQ2JE7-121" value="น้ำเขียวมั้ย" style="rhombus;whiteSpace=wrap;html=1;" parent="WIyWlLk6GJQsqaUBKTNV-1" vertex="1">
          <mxGeometry x="724" y="430" width="80" height="80" as="geometry" />
        </mxCell>
        <mxCell id="SD3mACNuw7I6ulbQ2JE7-140" value="" style="edgeStyle=orthogonalEdgeStyle;rounded=0;orthogonalLoop=1;jettySize=auto;html=1;" parent="WIyWlLk6GJQsqaUBKTNV-1" source="SD3mACNuw7I6ulbQ2JE7-122" target="SD3mACNuw7I6ulbQ2JE7-136" edge="1">
          <mxGeometry relative="1" as="geometry" />
        </mxCell>
        <mxCell id="V9kbop6HQoNJyVFFNIBV-0" style="edgeStyle=orthogonalEdgeStyle;rounded=0;orthogonalLoop=1;jettySize=auto;html=1;entryX=1;entryY=0.5;entryDx=0;entryDy=0;" edge="1" parent="WIyWlLk6GJQsqaUBKTNV-1" source="SD3mACNuw7I6ulbQ2JE7-122" target="SD3mACNuw7I6ulbQ2JE7-137">
          <mxGeometry relative="1" as="geometry">
            <Array as="points">
              <mxPoint x="764" y="685" />
            </Array>
          </mxGeometry>
        </mxCell>
        <mxCell id="SD3mACNuw7I6ulbQ2JE7-122" value="อเมริกาโน่มั้ย" style="rhombus;whiteSpace=wrap;html=1;" parent="WIyWlLk6GJQsqaUBKTNV-1" vertex="1">
          <mxGeometry x="724" y="540" width="80" height="80" as="geometry" />
        </mxCell>
        <mxCell id="SD3mACNuw7I6ulbQ2JE7-146" value="" style="edgeStyle=orthogonalEdgeStyle;rounded=0;orthogonalLoop=1;jettySize=auto;html=1;" parent="WIyWlLk6GJQsqaUBKTNV-1" source="SD3mACNuw7I6ulbQ2JE7-127" target="SD3mACNuw7I6ulbQ2JE7-143" edge="1">
          <mxGeometry relative="1" as="geometry" />
        </mxCell>
        <mxCell id="V9kbop6HQoNJyVFFNIBV-1" style="edgeStyle=orthogonalEdgeStyle;rounded=0;orthogonalLoop=1;jettySize=auto;html=1;entryX=0;entryY=0.5;entryDx=0;entryDy=0;" edge="1" parent="WIyWlLk6GJQsqaUBKTNV-1" source="SD3mACNuw7I6ulbQ2JE7-127" target="SD3mACNuw7I6ulbQ2JE7-144">
          <mxGeometry relative="1" as="geometry">
            <Array as="points">
              <mxPoint x="1044" y="580" />
            </Array>
          </mxGeometry>
        </mxCell>
        <mxCell id="SD3mACNuw7I6ulbQ2JE7-127" value="ถั่วแปบมั้ย" style="rhombus;whiteSpace=wrap;html=1;" parent="WIyWlLk6GJQsqaUBKTNV-1" vertex="1">
          <mxGeometry x="1005" y="430" width="80" height="80" as="geometry" />
        </mxCell>
        <mxCell id="SD3mACNuw7I6ulbQ2JE7-131" value="yes" style="text;html=1;align=center;verticalAlign=middle;whiteSpace=wrap;rounded=0;" parent="WIyWlLk6GJQsqaUBKTNV-1" vertex="1">
          <mxGeometry x="930" y="330" width="60" height="30" as="geometry" />
        </mxCell>
        <mxCell id="SD3mACNuw7I6ulbQ2JE7-133" value="no" style="text;html=1;align=center;verticalAlign=middle;whiteSpace=wrap;rounded=0;" parent="WIyWlLk6GJQsqaUBKTNV-1" vertex="1">
          <mxGeometry x="820" y="330" width="60" height="30" as="geometry" />
        </mxCell>
        <mxCell id="V9kbop6HQoNJyVFFNIBV-56" value="" style="edgeStyle=orthogonalEdgeStyle;rounded=0;orthogonalLoop=1;jettySize=auto;html=1;" edge="1" parent="WIyWlLk6GJQsqaUBKTNV-1" source="SD3mACNuw7I6ulbQ2JE7-134" target="V9kbop6HQoNJyVFFNIBV-55">
          <mxGeometry relative="1" as="geometry" />
        </mxCell>
        <mxCell id="SD3mACNuw7I6ulbQ2JE7-134" value="โค้ก = 10&lt;div&gt;ป๋อง&lt;/div&gt;" style="rounded=0;whiteSpace=wrap;html=1;" parent="WIyWlLk6GJQsqaUBKTNV-1" vertex="1">
          <mxGeometry x="594" y="341.5" width="70" height="43" as="geometry" />
        </mxCell>
        <mxCell id="V9kbop6HQoNJyVFFNIBV-61" value="" style="edgeStyle=orthogonalEdgeStyle;rounded=0;orthogonalLoop=1;jettySize=auto;html=1;" edge="1" parent="WIyWlLk6GJQsqaUBKTNV-1" source="SD3mACNuw7I6ulbQ2JE7-135" target="V9kbop6HQoNJyVFFNIBV-58">
          <mxGeometry relative="1" as="geometry" />
        </mxCell>
        <mxCell id="SD3mACNuw7I6ulbQ2JE7-135" value="น้ำเขียว = 10 ป๋อง&lt;span style=&quot;color: light-dark(rgba(0, 0, 0, 0), rgb(237, 237, 237)); font-family: monospace; font-size: 0px; text-align: start; text-wrap-mode: nowrap; background-color: transparent;&quot;&gt;3E%3Croot%3E%3CmxCell%20id%3D%220%22%2F%3E%3CmxCell%20id%3D%221%22%20parent%3D%220%22%2F%3E%3CmxCell%20id%3D%222%22%20value%3D%2230*c%22%20style%3D%22rounded%3D0%3BwhiteSpace%3Dwrap%3Bhtml%3D1%3B%22%20vertex%3D%221%22%20parent%3D%221%22%3E%3CmxGeometry%20x%3D%22-20%22%20y%3D%22608.5%22%20width%3D%2270%22%20height%3D%2243%22%20as%3D%22geometry%22%2F%3E%3C%2FmxCell%3E%3C%2Froot%3E%3C%2FmxGraphModel%3&lt;/span&gt;" style="rounded=0;whiteSpace=wrap;html=1;" parent="WIyWlLk6GJQsqaUBKTNV-1" vertex="1">
          <mxGeometry x="594" y="448.5" width="70" height="43" as="geometry" />
        </mxCell>
        <mxCell id="V9kbop6HQoNJyVFFNIBV-62" value="" style="edgeStyle=orthogonalEdgeStyle;rounded=0;orthogonalLoop=1;jettySize=auto;html=1;" edge="1" parent="WIyWlLk6GJQsqaUBKTNV-1" source="SD3mACNuw7I6ulbQ2JE7-136" target="V9kbop6HQoNJyVFFNIBV-59">
          <mxGeometry relative="1" as="geometry" />
        </mxCell>
        <mxCell id="SD3mACNuw7I6ulbQ2JE7-136" value="อเมริกาโน่ = 10 ป๋อง" style="rounded=0;whiteSpace=wrap;html=1;" parent="WIyWlLk6GJQsqaUBKTNV-1" vertex="1">
          <mxGeometry x="594" y="558.5" width="70" height="43" as="geometry" />
        </mxCell>
        <mxCell id="V9kbop6HQoNJyVFFNIBV-79" value="" style="edgeStyle=orthogonalEdgeStyle;rounded=0;orthogonalLoop=1;jettySize=auto;html=1;" edge="1" parent="WIyWlLk6GJQsqaUBKTNV-1" source="SD3mACNuw7I6ulbQ2JE7-137" target="V9kbop6HQoNJyVFFNIBV-60">
          <mxGeometry relative="1" as="geometry" />
        </mxCell>
        <mxCell id="SD3mACNuw7I6ulbQ2JE7-137" value="ลาเต้ = 10&lt;div&gt;ป๋อง&lt;/div&gt;" style="rounded=0;whiteSpace=wrap;html=1;" parent="WIyWlLk6GJQsqaUBKTNV-1" vertex="1">
          <mxGeometry x="594" y="663.5" width="70" height="43" as="geometry" />
        </mxCell>
        <mxCell id="V9kbop6HQoNJyVFFNIBV-68" value="" style="edgeStyle=orthogonalEdgeStyle;rounded=0;orthogonalLoop=1;jettySize=auto;html=1;" edge="1" parent="WIyWlLk6GJQsqaUBKTNV-1" source="SD3mACNuw7I6ulbQ2JE7-142" target="V9kbop6HQoNJyVFFNIBV-67">
          <mxGeometry relative="1" as="geometry" />
        </mxCell>
        <mxCell id="SD3mACNuw7I6ulbQ2JE7-142" value="เมล็ด = 10&lt;div&gt;ถุง&lt;/div&gt;" style="rounded=0;whiteSpace=wrap;html=1;" parent="WIyWlLk6GJQsqaUBKTNV-1" vertex="1">
          <mxGeometry x="1134" y="341.5" width="70" height="43" as="geometry" />
        </mxCell>
        <mxCell id="V9kbop6HQoNJyVFFNIBV-74" value="" style="edgeStyle=orthogonalEdgeStyle;rounded=0;orthogonalLoop=1;jettySize=auto;html=1;" edge="1" parent="WIyWlLk6GJQsqaUBKTNV-1" source="SD3mACNuw7I6ulbQ2JE7-143" target="V9kbop6HQoNJyVFFNIBV-70">
          <mxGeometry relative="1" as="geometry" />
        </mxCell>
        <mxCell id="SD3mACNuw7I6ulbQ2JE7-143" value="ถั่วแปบ = 10&lt;div&gt;ถุง&lt;/div&gt;" style="rounded=0;whiteSpace=wrap;html=1;" parent="WIyWlLk6GJQsqaUBKTNV-1" vertex="1">
          <mxGeometry x="1134" y="448.5" width="70" height="43" as="geometry" />
        </mxCell>
        <mxCell id="V9kbop6HQoNJyVFFNIBV-72" value="" style="edgeStyle=orthogonalEdgeStyle;rounded=0;orthogonalLoop=1;jettySize=auto;html=1;" edge="1" parent="WIyWlLk6GJQsqaUBKTNV-1" source="SD3mACNuw7I6ulbQ2JE7-144" target="V9kbop6HQoNJyVFFNIBV-71">
          <mxGeometry relative="1" as="geometry" />
        </mxCell>
        <mxCell id="SD3mACNuw7I6ulbQ2JE7-144" value="จิ้นส้ม = 10&lt;div&gt;ห่อ&lt;/div&gt;" style="rounded=0;whiteSpace=wrap;html=1;" parent="WIyWlLk6GJQsqaUBKTNV-1" vertex="1">
          <mxGeometry x="1134" y="558.5" width="70" height="43" as="geometry" />
        </mxCell>
        <mxCell id="SD3mACNuw7I6ulbQ2JE7-148" value="yes" style="text;html=1;align=center;verticalAlign=middle;whiteSpace=wrap;rounded=0;" parent="WIyWlLk6GJQsqaUBKTNV-1" vertex="1">
          <mxGeometry x="1064" y="330" width="60" height="30" as="geometry" />
        </mxCell>
        <mxCell id="SD3mACNuw7I6ulbQ2JE7-149" value="yes" style="text;html=1;align=center;verticalAlign=middle;whiteSpace=wrap;rounded=0;" parent="WIyWlLk6GJQsqaUBKTNV-1" vertex="1">
          <mxGeometry x="1073" y="440" width="60" height="30" as="geometry" />
        </mxCell>
        <mxCell id="SD3mACNuw7I6ulbQ2JE7-151" value="yes" style="text;html=1;align=center;verticalAlign=middle;whiteSpace=wrap;rounded=0;" parent="WIyWlLk6GJQsqaUBKTNV-1" vertex="1">
          <mxGeometry x="683" y="330" width="60" height="30" as="geometry" />
        </mxCell>
        <mxCell id="SD3mACNuw7I6ulbQ2JE7-152" value="yes" style="text;html=1;align=center;verticalAlign=middle;whiteSpace=wrap;rounded=0;" parent="WIyWlLk6GJQsqaUBKTNV-1" vertex="1">
          <mxGeometry x="683" y="440" width="60" height="30" as="geometry" />
        </mxCell>
        <mxCell id="SD3mACNuw7I6ulbQ2JE7-153" value="yes" style="text;html=1;align=center;verticalAlign=middle;whiteSpace=wrap;rounded=0;" parent="WIyWlLk6GJQsqaUBKTNV-1" vertex="1">
          <mxGeometry x="684" y="550" width="60" height="30" as="geometry" />
        </mxCell>
        <mxCell id="SD3mACNuw7I6ulbQ2JE7-155" value="no" style="text;html=1;align=center;verticalAlign=middle;whiteSpace=wrap;rounded=0;" parent="WIyWlLk6GJQsqaUBKTNV-1" vertex="1">
          <mxGeometry x="748" y="400" width="60" height="30" as="geometry" />
        </mxCell>
        <mxCell id="SD3mACNuw7I6ulbQ2JE7-156" value="no" style="text;html=1;align=center;verticalAlign=middle;whiteSpace=wrap;rounded=0;" parent="WIyWlLk6GJQsqaUBKTNV-1" vertex="1">
          <mxGeometry x="748" y="510" width="60" height="30" as="geometry" />
        </mxCell>
        <mxCell id="SD3mACNuw7I6ulbQ2JE7-157" value="no" style="text;html=1;align=center;verticalAlign=middle;whiteSpace=wrap;rounded=0;" parent="WIyWlLk6GJQsqaUBKTNV-1" vertex="1">
          <mxGeometry x="760" y="636" width="60" height="30" as="geometry" />
        </mxCell>
        <mxCell id="SD3mACNuw7I6ulbQ2JE7-158" value="no" style="text;html=1;align=center;verticalAlign=middle;whiteSpace=wrap;rounded=0;" parent="WIyWlLk6GJQsqaUBKTNV-1" vertex="1">
          <mxGeometry x="1004" y="400" width="60" height="30" as="geometry" />
        </mxCell>
        <mxCell id="SD3mACNuw7I6ulbQ2JE7-159" value="no" style="text;html=1;align=center;verticalAlign=middle;whiteSpace=wrap;rounded=0;" parent="WIyWlLk6GJQsqaUBKTNV-1" vertex="1">
          <mxGeometry x="990" y="528.5" width="60" height="30" as="geometry" />
        </mxCell>
        <mxCell id="SD3mACNuw7I6ulbQ2JE7-177" value="" style="edgeStyle=orthogonalEdgeStyle;rounded=0;orthogonalLoop=1;jettySize=auto;html=1;" parent="WIyWlLk6GJQsqaUBKTNV-1" source="SD3mACNuw7I6ulbQ2JE7-161" target="SD3mACNuw7I6ulbQ2JE7-176" edge="1">
          <mxGeometry relative="1" as="geometry" />
        </mxCell>
        <mxCell id="SD3mACNuw7I6ulbQ2JE7-161" value="" style="ellipse;whiteSpace=wrap;html=1;aspect=fixed;" parent="WIyWlLk6GJQsqaUBKTNV-1" vertex="1">
          <mxGeometry x="891" y="795" width="26" height="26" as="geometry" />
        </mxCell>
        <mxCell id="SD3mACNuw7I6ulbQ2JE7-179" value="" style="edgeStyle=orthogonalEdgeStyle;rounded=0;orthogonalLoop=1;jettySize=auto;html=1;" parent="WIyWlLk6GJQsqaUBKTNV-1" source="SD3mACNuw7I6ulbQ2JE7-176" target="SD3mACNuw7I6ulbQ2JE7-178" edge="1">
          <mxGeometry relative="1" as="geometry" />
        </mxCell>
        <mxCell id="SD3mACNuw7I6ulbQ2JE7-176" value="sum(สินค้า)" style="rounded=0;whiteSpace=wrap;html=1;" parent="WIyWlLk6GJQsqaUBKTNV-1" vertex="1">
          <mxGeometry x="844" y="854" width="120" height="60" as="geometry" />
        </mxCell>
        <mxCell id="SD3mACNuw7I6ulbQ2JE7-178" value="stop" style="ellipse;whiteSpace=wrap;html=1;" parent="WIyWlLk6GJQsqaUBKTNV-1" vertex="1">
          <mxGeometry x="854" y="955" width="100" height="50" as="geometry" />
        </mxCell>
        <mxCell id="SD3mACNuw7I6ulbQ2JE7-186" style="edgeStyle=orthogonalEdgeStyle;rounded=0;orthogonalLoop=1;jettySize=auto;html=1;entryX=0.5;entryY=0;entryDx=0;entryDy=0;" parent="WIyWlLk6GJQsqaUBKTNV-1" edge="1">
          <mxGeometry relative="1" as="geometry">
            <mxPoint x="-402" y="681.0000000000001" as="sourcePoint" />
            <mxPoint x="-401" y="709" as="targetPoint" />
          </mxGeometry>
        </mxCell>
        <mxCell id="SD3mACNuw7I6ulbQ2JE7-183" value="" style="ellipse;whiteSpace=wrap;html=1;aspect=fixed;" parent="WIyWlLk6GJQsqaUBKTNV-1" vertex="1">
          <mxGeometry x="-413" y="659" width="24" height="24" as="geometry" />
        </mxCell>
        <mxCell id="SD3mACNuw7I6ulbQ2JE7-191" value="" style="edgeStyle=orthogonalEdgeStyle;rounded=0;orthogonalLoop=1;jettySize=auto;html=1;" parent="WIyWlLk6GJQsqaUBKTNV-1" source="SD3mACNuw7I6ulbQ2JE7-187" target="SD3mACNuw7I6ulbQ2JE7-108" edge="1">
          <mxGeometry relative="1" as="geometry" />
        </mxCell>
        <mxCell id="SD3mACNuw7I6ulbQ2JE7-187" value="" style="ellipse;whiteSpace=wrap;html=1;aspect=fixed;" parent="WIyWlLk6GJQsqaUBKTNV-1" vertex="1">
          <mxGeometry x="-412" y="990" width="24" height="24" as="geometry" />
        </mxCell>
        <mxCell id="SD3mACNuw7I6ulbQ2JE7-200" style="edgeStyle=orthogonalEdgeStyle;rounded=0;orthogonalLoop=1;jettySize=auto;html=1;" parent="WIyWlLk6GJQsqaUBKTNV-1" source="SD3mACNuw7I6ulbQ2JE7-194" edge="1">
          <mxGeometry relative="1" as="geometry">
            <mxPoint x="250" y="470.0000000000001" as="targetPoint" />
          </mxGeometry>
        </mxCell>
        <mxCell id="SD3mACNuw7I6ulbQ2JE7-194" value="12*b" style="rounded=0;whiteSpace=wrap;html=1;" parent="WIyWlLk6GJQsqaUBKTNV-1" vertex="1">
          <mxGeometry x="290" y="448.5" width="70" height="43" as="geometry" />
        </mxCell>
        <mxCell id="V9kbop6HQoNJyVFFNIBV-106" style="edgeStyle=orthogonalEdgeStyle;rounded=0;orthogonalLoop=1;jettySize=auto;html=1;entryX=0;entryY=0.5;entryDx=0;entryDy=0;" edge="1" parent="WIyWlLk6GJQsqaUBKTNV-1" source="SD3mACNuw7I6ulbQ2JE7-195" target="SD3mACNuw7I6ulbQ2JE7-161">
          <mxGeometry relative="1" as="geometry">
            <Array as="points">
              <mxPoint x="254" y="363" />
              <mxPoint x="254" y="808" />
            </Array>
          </mxGeometry>
        </mxCell>
        <mxCell id="SD3mACNuw7I6ulbQ2JE7-195" value="10*a" style="rounded=0;whiteSpace=wrap;html=1;" parent="WIyWlLk6GJQsqaUBKTNV-1" vertex="1">
          <mxGeometry x="290" y="341.5" width="70" height="43" as="geometry" />
        </mxCell>
        <mxCell id="SD3mACNuw7I6ulbQ2JE7-201" style="edgeStyle=orthogonalEdgeStyle;rounded=0;orthogonalLoop=1;jettySize=auto;html=1;" parent="WIyWlLk6GJQsqaUBKTNV-1" source="SD3mACNuw7I6ulbQ2JE7-196" edge="1">
          <mxGeometry relative="1" as="geometry">
            <mxPoint x="250" y="580" as="targetPoint" />
          </mxGeometry>
        </mxCell>
        <mxCell id="SD3mACNuw7I6ulbQ2JE7-196" value="30*c" style="rounded=0;whiteSpace=wrap;html=1;" parent="WIyWlLk6GJQsqaUBKTNV-1" vertex="1">
          <mxGeometry x="290" y="558.5" width="70" height="43" as="geometry" />
        </mxCell>
        <mxCell id="SD3mACNuw7I6ulbQ2JE7-202" style="edgeStyle=orthogonalEdgeStyle;rounded=0;orthogonalLoop=1;jettySize=auto;html=1;" parent="WIyWlLk6GJQsqaUBKTNV-1" source="SD3mACNuw7I6ulbQ2JE7-197" edge="1">
          <mxGeometry relative="1" as="geometry">
            <mxPoint x="250" y="685" as="targetPoint" />
          </mxGeometry>
        </mxCell>
        <mxCell id="SD3mACNuw7I6ulbQ2JE7-197" value="35*d" style="rounded=0;whiteSpace=wrap;html=1;" parent="WIyWlLk6GJQsqaUBKTNV-1" vertex="1">
          <mxGeometry x="290" y="663.5" width="70" height="43" as="geometry" />
        </mxCell>
        <mxCell id="V9kbop6HQoNJyVFFNIBV-78" style="edgeStyle=orthogonalEdgeStyle;rounded=0;orthogonalLoop=1;jettySize=auto;html=1;" edge="1" parent="WIyWlLk6GJQsqaUBKTNV-1" source="SD3mACNuw7I6ulbQ2JE7-204">
          <mxGeometry relative="1" as="geometry">
            <mxPoint x="1564" y="470.5" as="targetPoint" />
          </mxGeometry>
        </mxCell>
        <mxCell id="SD3mACNuw7I6ulbQ2JE7-204" value="20*y" style="rounded=0;whiteSpace=wrap;html=1;" parent="WIyWlLk6GJQsqaUBKTNV-1" vertex="1">
          <mxGeometry x="1455" y="449" width="70" height="43" as="geometry" />
        </mxCell>
        <mxCell id="V9kbop6HQoNJyVFFNIBV-116" style="edgeStyle=orthogonalEdgeStyle;rounded=0;orthogonalLoop=1;jettySize=auto;html=1;entryX=1;entryY=0.5;entryDx=0;entryDy=0;" edge="1" parent="WIyWlLk6GJQsqaUBKTNV-1" source="SD3mACNuw7I6ulbQ2JE7-205" target="SD3mACNuw7I6ulbQ2JE7-161">
          <mxGeometry relative="1" as="geometry">
            <Array as="points">
              <mxPoint x="1564" y="363" />
              <mxPoint x="1564" y="808" />
            </Array>
          </mxGeometry>
        </mxCell>
        <mxCell id="SD3mACNuw7I6ulbQ2JE7-205" value="13*x" style="rounded=0;whiteSpace=wrap;html=1;" parent="WIyWlLk6GJQsqaUBKTNV-1" vertex="1">
          <mxGeometry x="1455" y="341.5" width="70" height="43" as="geometry" />
        </mxCell>
        <mxCell id="SD3mACNuw7I6ulbQ2JE7-210" style="edgeStyle=orthogonalEdgeStyle;rounded=0;orthogonalLoop=1;jettySize=auto;html=1;" parent="WIyWlLk6GJQsqaUBKTNV-1" source="SD3mACNuw7I6ulbQ2JE7-207" edge="1">
          <mxGeometry relative="1" as="geometry">
            <mxPoint x="1565" y="580" as="targetPoint" />
          </mxGeometry>
        </mxCell>
        <mxCell id="SD3mACNuw7I6ulbQ2JE7-207" value="15*z" style="rounded=0;whiteSpace=wrap;html=1;" parent="WIyWlLk6GJQsqaUBKTNV-1" vertex="1">
          <mxGeometry x="1455" y="558.5" width="70" height="43" as="geometry" />
        </mxCell>
        <mxCell id="V9kbop6HQoNJyVFFNIBV-5" value="no" style="text;html=1;align=center;verticalAlign=middle;whiteSpace=wrap;rounded=0;" vertex="1" parent="WIyWlLk6GJQsqaUBKTNV-1">
          <mxGeometry x="773.5" y="1385" width="60" height="30" as="geometry" />
        </mxCell>
        <mxCell id="V9kbop6HQoNJyVFFNIBV-6" value="no" style="text;html=1;align=center;verticalAlign=middle;whiteSpace=wrap;rounded=0;" vertex="1" parent="WIyWlLk6GJQsqaUBKTNV-1">
          <mxGeometry x="773.5" y="1490" width="60" height="30" as="geometry" />
        </mxCell>
        <mxCell id="V9kbop6HQoNJyVFFNIBV-7" value="no" style="text;html=1;align=center;verticalAlign=middle;whiteSpace=wrap;rounded=0;" vertex="1" parent="WIyWlLk6GJQsqaUBKTNV-1">
          <mxGeometry x="773.5" y="1596" width="60" height="30" as="geometry" />
        </mxCell>
        <mxCell id="V9kbop6HQoNJyVFFNIBV-8" value="no" style="text;html=1;align=center;verticalAlign=middle;whiteSpace=wrap;rounded=0;" vertex="1" parent="WIyWlLk6GJQsqaUBKTNV-1">
          <mxGeometry x="773.5" y="1726" width="60" height="30" as="geometry" />
        </mxCell>
        <mxCell id="V9kbop6HQoNJyVFFNIBV-9" value="no" style="text;html=1;align=center;verticalAlign=middle;whiteSpace=wrap;rounded=0;" vertex="1" parent="WIyWlLk6GJQsqaUBKTNV-1">
          <mxGeometry x="973.5" y="1380" width="60" height="30" as="geometry" />
        </mxCell>
        <mxCell id="V9kbop6HQoNJyVFFNIBV-10" value="no" style="text;html=1;align=center;verticalAlign=middle;whiteSpace=wrap;rounded=0;" vertex="1" parent="WIyWlLk6GJQsqaUBKTNV-1">
          <mxGeometry x="963.5" y="1480" width="60" height="30" as="geometry" />
        </mxCell>
        <mxCell id="V9kbop6HQoNJyVFFNIBV-11" value="no" style="text;html=1;align=center;verticalAlign=middle;whiteSpace=wrap;rounded=0;" vertex="1" parent="WIyWlLk6GJQsqaUBKTNV-1">
          <mxGeometry x="973.5" y="1601" width="60" height="30" as="geometry" />
        </mxCell>
        <mxCell id="V9kbop6HQoNJyVFFNIBV-12" value="yes" style="text;html=1;align=center;verticalAlign=middle;whiteSpace=wrap;rounded=0;" vertex="1" parent="WIyWlLk6GJQsqaUBKTNV-1">
          <mxGeometry x="1048.5" y="1320" width="60" height="30" as="geometry" />
        </mxCell>
        <mxCell id="V9kbop6HQoNJyVFFNIBV-13" value="yes" style="text;html=1;align=center;verticalAlign=middle;whiteSpace=wrap;rounded=0;" vertex="1" parent="WIyWlLk6GJQsqaUBKTNV-1">
          <mxGeometry x="1054.5" y="1415" width="60" height="30" as="geometry" />
        </mxCell>
        <mxCell id="V9kbop6HQoNJyVFFNIBV-14" value="yes" style="text;html=1;align=center;verticalAlign=middle;whiteSpace=wrap;rounded=0;" vertex="1" parent="WIyWlLk6GJQsqaUBKTNV-1">
          <mxGeometry x="1054.5" y="1518.5" width="60" height="30" as="geometry" />
        </mxCell>
        <mxCell id="V9kbop6HQoNJyVFFNIBV-18" value="yes" style="text;html=1;align=center;verticalAlign=middle;whiteSpace=wrap;rounded=0;" vertex="1" parent="WIyWlLk6GJQsqaUBKTNV-1">
          <mxGeometry x="693.5" y="1626" width="60" height="30" as="geometry" />
        </mxCell>
        <mxCell id="V9kbop6HQoNJyVFFNIBV-19" value="yes" style="text;html=1;align=center;verticalAlign=middle;whiteSpace=wrap;rounded=0;" vertex="1" parent="WIyWlLk6GJQsqaUBKTNV-1">
          <mxGeometry x="693.5" y="1520" width="60" height="30" as="geometry" />
        </mxCell>
        <mxCell id="V9kbop6HQoNJyVFFNIBV-20" value="yes" style="text;html=1;align=center;verticalAlign=middle;whiteSpace=wrap;rounded=0;" vertex="1" parent="WIyWlLk6GJQsqaUBKTNV-1">
          <mxGeometry x="693.5" y="1420" width="60" height="30" as="geometry" />
        </mxCell>
        <mxCell id="V9kbop6HQoNJyVFFNIBV-21" value="yes" style="text;html=1;align=center;verticalAlign=middle;whiteSpace=wrap;rounded=0;" vertex="1" parent="WIyWlLk6GJQsqaUBKTNV-1">
          <mxGeometry x="693.5" y="1320" width="60" height="30" as="geometry" />
        </mxCell>
        <mxCell id="V9kbop6HQoNJyVFFNIBV-25" style="edgeStyle=orthogonalEdgeStyle;rounded=0;orthogonalLoop=1;jettySize=auto;html=1;entryX=0.5;entryY=0;entryDx=0;entryDy=0;" edge="1" parent="WIyWlLk6GJQsqaUBKTNV-1" source="V9kbop6HQoNJyVFFNIBV-22" target="SD3mACNuw7I6ulbQ2JE7-92">
          <mxGeometry relative="1" as="geometry" />
        </mxCell>
        <mxCell id="V9kbop6HQoNJyVFFNIBV-22" value="" style="ellipse;whiteSpace=wrap;html=1;aspect=fixed;" vertex="1" parent="WIyWlLk6GJQsqaUBKTNV-1">
          <mxGeometry x="903.5" y="1850" width="30" height="30" as="geometry" />
        </mxCell>
        <mxCell id="V9kbop6HQoNJyVFFNIBV-27" value="&lt;b&gt;&lt;font style=&quot;font-size: 14px;&quot;&gt;|&lt;/font&gt;&lt;/b&gt;&lt;div&gt;&lt;b&gt;&lt;font style=&quot;font-size: 14px;&quot;&gt;|&lt;/font&gt;&lt;/b&gt;&lt;/div&gt;&lt;div&gt;&lt;b&gt;&lt;font style=&quot;font-size: 14px;&quot;&gt;|&lt;/font&gt;&lt;/b&gt;&lt;/div&gt;&lt;div&gt;&lt;b&gt;&lt;font style=&quot;font-size: 14px;&quot;&gt;|&lt;/font&gt;&lt;/b&gt;&lt;/div&gt;&lt;div&gt;&lt;b&gt;&lt;font style=&quot;font-size: 14px;&quot;&gt;|&lt;/font&gt;&lt;/b&gt;&lt;/div&gt;&lt;div&gt;&lt;b&gt;&lt;font style=&quot;font-size: 14px;&quot;&gt;|&lt;/font&gt;&lt;/b&gt;&lt;/div&gt;" style="text;html=1;align=center;verticalAlign=middle;whiteSpace=wrap;rounded=0;" vertex="1" parent="WIyWlLk6GJQsqaUBKTNV-1">
          <mxGeometry x="-419.75" y="815" width="60" height="30" as="geometry" />
        </mxCell>
        <mxCell id="V9kbop6HQoNJyVFFNIBV-84" value="" style="edgeStyle=orthogonalEdgeStyle;rounded=0;orthogonalLoop=1;jettySize=auto;html=1;entryX=0.5;entryY=0;entryDx=0;entryDy=0;" edge="1" parent="WIyWlLk6GJQsqaUBKTNV-1" source="V9kbop6HQoNJyVFFNIBV-29" target="V9kbop6HQoNJyVFFNIBV-85">
          <mxGeometry relative="1" as="geometry">
            <mxPoint x="-400" y="1310" as="targetPoint" />
          </mxGeometry>
        </mxCell>
        <mxCell id="V9kbop6HQoNJyVFFNIBV-29" value="จำนวนและราคา:&lt;div&gt;len/sum&lt;/div&gt;" style="shape=parallelogram;perimeter=parallelogramPerimeter;whiteSpace=wrap;html=1;fixedSize=1;" vertex="1" parent="WIyWlLk6GJQsqaUBKTNV-1">
          <mxGeometry x="-460" y="1200" width="120" height="60" as="geometry" />
        </mxCell>
        <mxCell id="V9kbop6HQoNJyVFFNIBV-51" value="" style="edgeStyle=orthogonalEdgeStyle;rounded=0;orthogonalLoop=1;jettySize=auto;html=1;" edge="1" parent="WIyWlLk6GJQsqaUBKTNV-1" source="V9kbop6HQoNJyVFFNIBV-31" target="V9kbop6HQoNJyVFFNIBV-49">
          <mxGeometry relative="1" as="geometry" />
        </mxCell>
        <mxCell id="V9kbop6HQoNJyVFFNIBV-31" value="m = รับเงิน" style="shape=parallelogram;perimeter=parallelogramPerimeter;whiteSpace=wrap;html=1;fixedSize=1;" vertex="1" parent="WIyWlLk6GJQsqaUBKTNV-1">
          <mxGeometry x="-460" y="1430" width="120" height="60" as="geometry" />
        </mxCell>
        <mxCell id="V9kbop6HQoNJyVFFNIBV-42" style="edgeStyle=orthogonalEdgeStyle;rounded=0;orthogonalLoop=1;jettySize=auto;html=1;entryX=0.5;entryY=0;entryDx=0;entryDy=0;" edge="1" parent="WIyWlLk6GJQsqaUBKTNV-1" source="V9kbop6HQoNJyVFFNIBV-33" target="V9kbop6HQoNJyVFFNIBV-41">
          <mxGeometry relative="1" as="geometry" />
        </mxCell>
        <mxCell id="V9kbop6HQoNJyVFFNIBV-89" style="edgeStyle=orthogonalEdgeStyle;rounded=0;orthogonalLoop=1;jettySize=auto;html=1;entryX=0.5;entryY=1;entryDx=0;entryDy=0;" edge="1" parent="WIyWlLk6GJQsqaUBKTNV-1" source="V9kbop6HQoNJyVFFNIBV-33" target="V9kbop6HQoNJyVFFNIBV-38">
          <mxGeometry relative="1" as="geometry" />
        </mxCell>
        <mxCell id="V9kbop6HQoNJyVFFNIBV-33" value="m &amp;gt;= sum&lt;div&gt;?&lt;/div&gt;" style="rhombus;whiteSpace=wrap;html=1;" vertex="1" parent="WIyWlLk6GJQsqaUBKTNV-1">
          <mxGeometry x="-440" y="1600" width="80" height="80" as="geometry" />
        </mxCell>
        <mxCell id="V9kbop6HQoNJyVFFNIBV-37" style="edgeStyle=orthogonalEdgeStyle;rounded=0;orthogonalLoop=1;jettySize=auto;html=1;entryX=0.5;entryY=0;entryDx=0;entryDy=0;" edge="1" parent="WIyWlLk6GJQsqaUBKTNV-1" source="V9kbop6HQoNJyVFFNIBV-35" target="V9kbop6HQoNJyVFFNIBV-29">
          <mxGeometry relative="1" as="geometry" />
        </mxCell>
        <mxCell id="V9kbop6HQoNJyVFFNIBV-35" value="" style="ellipse;whiteSpace=wrap;html=1;aspect=fixed;" vertex="1" parent="WIyWlLk6GJQsqaUBKTNV-1">
          <mxGeometry x="-415" y="1130" width="30" height="30" as="geometry" />
        </mxCell>
        <mxCell id="V9kbop6HQoNJyVFFNIBV-40" style="edgeStyle=orthogonalEdgeStyle;rounded=0;orthogonalLoop=1;jettySize=auto;html=1;entryX=1;entryY=0.5;entryDx=0;entryDy=0;" edge="1" parent="WIyWlLk6GJQsqaUBKTNV-1" source="V9kbop6HQoNJyVFFNIBV-38" target="V9kbop6HQoNJyVFFNIBV-35">
          <mxGeometry relative="1" as="geometry">
            <Array as="points">
              <mxPoint x="-210" y="1145" />
            </Array>
          </mxGeometry>
        </mxCell>
        <mxCell id="V9kbop6HQoNJyVFFNIBV-38" value="&lt;font style=&quot;font-size: 15px;&quot;&gt;เงินไม่พอ&lt;/font&gt;" style="shape=parallelogram;perimeter=parallelogramPerimeter;whiteSpace=wrap;html=1;fixedSize=1;" vertex="1" parent="WIyWlLk6GJQsqaUBKTNV-1">
          <mxGeometry x="-270" y="1250" width="120" height="60" as="geometry" />
        </mxCell>
        <mxCell id="V9kbop6HQoNJyVFFNIBV-47" value="" style="edgeStyle=orthogonalEdgeStyle;rounded=0;orthogonalLoop=1;jettySize=auto;html=1;" edge="1" parent="WIyWlLk6GJQsqaUBKTNV-1" source="V9kbop6HQoNJyVFFNIBV-41" target="SD3mACNuw7I6ulbQ2JE7-105">
          <mxGeometry relative="1" as="geometry" />
        </mxCell>
        <mxCell id="V9kbop6HQoNJyVFFNIBV-54" style="edgeStyle=orthogonalEdgeStyle;rounded=0;orthogonalLoop=1;jettySize=auto;html=1;entryX=1;entryY=0.5;entryDx=0;entryDy=0;" edge="1" parent="WIyWlLk6GJQsqaUBKTNV-1" source="V9kbop6HQoNJyVFFNIBV-41" target="V9kbop6HQoNJyVFFNIBV-48">
          <mxGeometry relative="1" as="geometry" />
        </mxCell>
        <mxCell id="V9kbop6HQoNJyVFFNIBV-41" value="m = sum&lt;div&gt;?&lt;/div&gt;" style="rhombus;whiteSpace=wrap;html=1;" vertex="1" parent="WIyWlLk6GJQsqaUBKTNV-1">
          <mxGeometry x="-440" y="1735" width="80" height="80" as="geometry" />
        </mxCell>
        <mxCell id="V9kbop6HQoNJyVFFNIBV-43" value="no" style="text;html=1;align=center;verticalAlign=middle;whiteSpace=wrap;rounded=0;" vertex="1" parent="WIyWlLk6GJQsqaUBKTNV-1">
          <mxGeometry x="-379.75" y="1601" width="60" height="30" as="geometry" />
        </mxCell>
        <mxCell id="V9kbop6HQoNJyVFFNIBV-44" value="yes" style="text;html=1;align=center;verticalAlign=middle;whiteSpace=wrap;rounded=0;" vertex="1" parent="WIyWlLk6GJQsqaUBKTNV-1">
          <mxGeometry x="-410" y="1670" width="60" height="30" as="geometry" />
        </mxCell>
        <mxCell id="V9kbop6HQoNJyVFFNIBV-118" value="" style="edgeStyle=orthogonalEdgeStyle;rounded=0;orthogonalLoop=1;jettySize=auto;html=1;" edge="1" parent="WIyWlLk6GJQsqaUBKTNV-1" source="V9kbop6HQoNJyVFFNIBV-48" target="V9kbop6HQoNJyVFFNIBV-117">
          <mxGeometry relative="1" as="geometry" />
        </mxCell>
        <mxCell id="V9kbop6HQoNJyVFFNIBV-48" value="m - sum = t" style="rounded=0;whiteSpace=wrap;html=1;" vertex="1" parent="WIyWlLk6GJQsqaUBKTNV-1">
          <mxGeometry x="-579.75" y="1752.5" width="80" height="45" as="geometry" />
        </mxCell>
        <mxCell id="V9kbop6HQoNJyVFFNIBV-53" style="edgeStyle=orthogonalEdgeStyle;rounded=0;orthogonalLoop=1;jettySize=auto;html=1;entryX=0.5;entryY=0;entryDx=0;entryDy=0;" edge="1" parent="WIyWlLk6GJQsqaUBKTNV-1" source="V9kbop6HQoNJyVFFNIBV-49" target="V9kbop6HQoNJyVFFNIBV-33">
          <mxGeometry relative="1" as="geometry" />
        </mxCell>
        <mxCell id="V9kbop6HQoNJyVFFNIBV-49" value="" style="ellipse;whiteSpace=wrap;html=1;aspect=fixed;" vertex="1" parent="WIyWlLk6GJQsqaUBKTNV-1">
          <mxGeometry x="-415" y="1530" width="30" height="30" as="geometry" />
        </mxCell>
        <mxCell id="V9kbop6HQoNJyVFFNIBV-81" value="" style="edgeStyle=orthogonalEdgeStyle;rounded=0;orthogonalLoop=1;jettySize=auto;html=1;" edge="1" parent="WIyWlLk6GJQsqaUBKTNV-1" source="V9kbop6HQoNJyVFFNIBV-55" target="V9kbop6HQoNJyVFFNIBV-80">
          <mxGeometry relative="1" as="geometry" />
        </mxCell>
        <mxCell id="V9kbop6HQoNJyVFFNIBV-55" value="จำนวน&lt;div&gt;= a&lt;/div&gt;" style="rounded=0;whiteSpace=wrap;html=1;" vertex="1" parent="WIyWlLk6GJQsqaUBKTNV-1">
          <mxGeometry x="494" y="341.5" width="70" height="43" as="geometry" />
        </mxCell>
        <mxCell id="V9kbop6HQoNJyVFFNIBV-97" value="" style="edgeStyle=orthogonalEdgeStyle;rounded=0;orthogonalLoop=1;jettySize=auto;html=1;" edge="1" parent="WIyWlLk6GJQsqaUBKTNV-1" source="V9kbop6HQoNJyVFFNIBV-58" target="V9kbop6HQoNJyVFFNIBV-96">
          <mxGeometry relative="1" as="geometry" />
        </mxCell>
        <mxCell id="V9kbop6HQoNJyVFFNIBV-58" value="จำนวน&lt;div&gt;= b&lt;/div&gt;" style="rounded=0;whiteSpace=wrap;html=1;" vertex="1" parent="WIyWlLk6GJQsqaUBKTNV-1">
          <mxGeometry x="494" y="448.5" width="70" height="43" as="geometry" />
        </mxCell>
        <mxCell id="V9kbop6HQoNJyVFFNIBV-101" value="" style="edgeStyle=orthogonalEdgeStyle;rounded=0;orthogonalLoop=1;jettySize=auto;html=1;" edge="1" parent="WIyWlLk6GJQsqaUBKTNV-1" source="V9kbop6HQoNJyVFFNIBV-59" target="V9kbop6HQoNJyVFFNIBV-100">
          <mxGeometry relative="1" as="geometry" />
        </mxCell>
        <mxCell id="V9kbop6HQoNJyVFFNIBV-59" value="จำนวน&lt;div&gt;= c&lt;/div&gt;" style="rounded=0;whiteSpace=wrap;html=1;" vertex="1" parent="WIyWlLk6GJQsqaUBKTNV-1">
          <mxGeometry x="494" y="558.5" width="70" height="43" as="geometry" />
        </mxCell>
        <mxCell id="V9kbop6HQoNJyVFFNIBV-104" value="" style="edgeStyle=orthogonalEdgeStyle;rounded=0;orthogonalLoop=1;jettySize=auto;html=1;" edge="1" parent="WIyWlLk6GJQsqaUBKTNV-1" source="V9kbop6HQoNJyVFFNIBV-60" target="V9kbop6HQoNJyVFFNIBV-103">
          <mxGeometry relative="1" as="geometry" />
        </mxCell>
        <mxCell id="V9kbop6HQoNJyVFFNIBV-60" value="จำนวน&lt;div&gt;= d&lt;/div&gt;" style="rounded=0;whiteSpace=wrap;html=1;" vertex="1" parent="WIyWlLk6GJQsqaUBKTNV-1">
          <mxGeometry x="494" y="663.5" width="70" height="43" as="geometry" />
        </mxCell>
        <mxCell id="V9kbop6HQoNJyVFFNIBV-112" value="" style="edgeStyle=orthogonalEdgeStyle;rounded=0;orthogonalLoop=1;jettySize=auto;html=1;" edge="1" parent="WIyWlLk6GJQsqaUBKTNV-1" source="V9kbop6HQoNJyVFFNIBV-67" target="V9kbop6HQoNJyVFFNIBV-107">
          <mxGeometry relative="1" as="geometry" />
        </mxCell>
        <mxCell id="V9kbop6HQoNJyVFFNIBV-67" value="จำนวน&lt;div&gt;= x&lt;/div&gt;" style="rounded=0;whiteSpace=wrap;html=1;" vertex="1" parent="WIyWlLk6GJQsqaUBKTNV-1">
          <mxGeometry x="1244" y="341.5" width="70" height="43" as="geometry" />
        </mxCell>
        <mxCell id="V9kbop6HQoNJyVFFNIBV-111" value="" style="edgeStyle=orthogonalEdgeStyle;rounded=0;orthogonalLoop=1;jettySize=auto;html=1;" edge="1" parent="WIyWlLk6GJQsqaUBKTNV-1" source="V9kbop6HQoNJyVFFNIBV-70" target="V9kbop6HQoNJyVFFNIBV-108">
          <mxGeometry relative="1" as="geometry" />
        </mxCell>
        <mxCell id="V9kbop6HQoNJyVFFNIBV-70" value="จำนวน&lt;div&gt;= y&lt;/div&gt;" style="rounded=0;whiteSpace=wrap;html=1;" vertex="1" parent="WIyWlLk6GJQsqaUBKTNV-1">
          <mxGeometry x="1244" y="448.5" width="70" height="43" as="geometry" />
        </mxCell>
        <mxCell id="V9kbop6HQoNJyVFFNIBV-110" value="" style="edgeStyle=orthogonalEdgeStyle;rounded=0;orthogonalLoop=1;jettySize=auto;html=1;" edge="1" parent="WIyWlLk6GJQsqaUBKTNV-1" source="V9kbop6HQoNJyVFFNIBV-71" target="V9kbop6HQoNJyVFFNIBV-109">
          <mxGeometry relative="1" as="geometry" />
        </mxCell>
        <mxCell id="V9kbop6HQoNJyVFFNIBV-71" value="จำนวน&lt;div&gt;= z&lt;/div&gt;" style="rounded=0;whiteSpace=wrap;html=1;" vertex="1" parent="WIyWlLk6GJQsqaUBKTNV-1">
          <mxGeometry x="1244" y="558.5" width="70" height="43" as="geometry" />
        </mxCell>
        <mxCell id="V9kbop6HQoNJyVFFNIBV-82" value="" style="edgeStyle=orthogonalEdgeStyle;rounded=0;orthogonalLoop=1;jettySize=auto;html=1;" edge="1" parent="WIyWlLk6GJQsqaUBKTNV-1" source="V9kbop6HQoNJyVFFNIBV-80" target="SD3mACNuw7I6ulbQ2JE7-195">
          <mxGeometry relative="1" as="geometry" />
        </mxCell>
        <mxCell id="V9kbop6HQoNJyVFFNIBV-80" value="โค้ก - a&lt;div&gt;= โค้ก&lt;/div&gt;" style="rounded=0;whiteSpace=wrap;html=1;" vertex="1" parent="WIyWlLk6GJQsqaUBKTNV-1">
          <mxGeometry x="394" y="341.5" width="70" height="43" as="geometry" />
        </mxCell>
        <mxCell id="V9kbop6HQoNJyVFFNIBV-87" value="" style="edgeStyle=orthogonalEdgeStyle;rounded=0;orthogonalLoop=1;jettySize=auto;html=1;" edge="1" parent="WIyWlLk6GJQsqaUBKTNV-1" source="V9kbop6HQoNJyVFFNIBV-85" target="V9kbop6HQoNJyVFFNIBV-31">
          <mxGeometry relative="1" as="geometry" />
        </mxCell>
        <mxCell id="V9kbop6HQoNJyVFFNIBV-94" style="edgeStyle=orthogonalEdgeStyle;rounded=0;orthogonalLoop=1;jettySize=auto;html=1;entryX=0.5;entryY=1;entryDx=0;entryDy=0;" edge="1" parent="WIyWlLk6GJQsqaUBKTNV-1" source="V9kbop6HQoNJyVFFNIBV-85" target="V9kbop6HQoNJyVFFNIBV-93">
          <mxGeometry relative="1" as="geometry" />
        </mxCell>
        <mxCell id="V9kbop6HQoNJyVFFNIBV-85" value="ยกเลิก" style="rhombus;whiteSpace=wrap;html=1;" vertex="1" parent="WIyWlLk6GJQsqaUBKTNV-1">
          <mxGeometry x="-440" y="1310" width="80" height="80" as="geometry" />
        </mxCell>
        <mxCell id="V9kbop6HQoNJyVFFNIBV-90" value="no" style="text;html=1;align=center;verticalAlign=middle;whiteSpace=wrap;rounded=0;" vertex="1" parent="WIyWlLk6GJQsqaUBKTNV-1">
          <mxGeometry x="-410" y="1380" width="60" height="30" as="geometry" />
        </mxCell>
        <mxCell id="V9kbop6HQoNJyVFFNIBV-91" value="yes" style="text;html=1;align=center;verticalAlign=middle;whiteSpace=wrap;rounded=0;" vertex="1" parent="WIyWlLk6GJQsqaUBKTNV-1">
          <mxGeometry x="-484" y="1317" width="60" height="30" as="geometry" />
        </mxCell>
        <mxCell id="V9kbop6HQoNJyVFFNIBV-95" style="edgeStyle=orthogonalEdgeStyle;rounded=0;orthogonalLoop=1;jettySize=auto;html=1;entryX=0;entryY=0.5;entryDx=0;entryDy=0;" edge="1" parent="WIyWlLk6GJQsqaUBKTNV-1" source="V9kbop6HQoNJyVFFNIBV-93" target="SD3mACNuw7I6ulbQ2JE7-183">
          <mxGeometry relative="1" as="geometry">
            <Array as="points">
              <mxPoint x="-720" y="671" />
            </Array>
          </mxGeometry>
        </mxCell>
        <mxCell id="V9kbop6HQoNJyVFFNIBV-93" value="clear" style="rounded=0;whiteSpace=wrap;html=1;" vertex="1" parent="WIyWlLk6GJQsqaUBKTNV-1">
          <mxGeometry x="-760" y="1020" width="80" height="42" as="geometry" />
        </mxCell>
        <mxCell id="V9kbop6HQoNJyVFFNIBV-98" value="" style="edgeStyle=orthogonalEdgeStyle;rounded=0;orthogonalLoop=1;jettySize=auto;html=1;" edge="1" parent="WIyWlLk6GJQsqaUBKTNV-1" source="V9kbop6HQoNJyVFFNIBV-96" target="SD3mACNuw7I6ulbQ2JE7-194">
          <mxGeometry relative="1" as="geometry" />
        </mxCell>
        <mxCell id="V9kbop6HQoNJyVFFNIBV-96" value="น้ำเขียว - b&lt;div&gt;= น้ำเขียว&lt;/div&gt;" style="rounded=0;whiteSpace=wrap;html=1;" vertex="1" parent="WIyWlLk6GJQsqaUBKTNV-1">
          <mxGeometry x="394" y="448.5" width="70" height="43" as="geometry" />
        </mxCell>
        <mxCell id="V9kbop6HQoNJyVFFNIBV-102" value="" style="edgeStyle=orthogonalEdgeStyle;rounded=0;orthogonalLoop=1;jettySize=auto;html=1;" edge="1" parent="WIyWlLk6GJQsqaUBKTNV-1" source="V9kbop6HQoNJyVFFNIBV-100" target="SD3mACNuw7I6ulbQ2JE7-196">
          <mxGeometry relative="1" as="geometry" />
        </mxCell>
        <mxCell id="V9kbop6HQoNJyVFFNIBV-100" value="อเมริกาโน่ - c = อเมริกาโน่" style="rounded=0;whiteSpace=wrap;html=1;" vertex="1" parent="WIyWlLk6GJQsqaUBKTNV-1">
          <mxGeometry x="394" y="558.5" width="70" height="43" as="geometry" />
        </mxCell>
        <mxCell id="V9kbop6HQoNJyVFFNIBV-105" value="" style="edgeStyle=orthogonalEdgeStyle;rounded=0;orthogonalLoop=1;jettySize=auto;html=1;" edge="1" parent="WIyWlLk6GJQsqaUBKTNV-1" source="V9kbop6HQoNJyVFFNIBV-103" target="SD3mACNuw7I6ulbQ2JE7-197">
          <mxGeometry relative="1" as="geometry" />
        </mxCell>
        <mxCell id="V9kbop6HQoNJyVFFNIBV-103" value="ลาเต้ - d&lt;div&gt;= ลาเต้&lt;/div&gt;" style="rounded=0;whiteSpace=wrap;html=1;" vertex="1" parent="WIyWlLk6GJQsqaUBKTNV-1">
          <mxGeometry x="394" y="663.5" width="70" height="43" as="geometry" />
        </mxCell>
        <mxCell id="V9kbop6HQoNJyVFFNIBV-113" value="" style="edgeStyle=orthogonalEdgeStyle;rounded=0;orthogonalLoop=1;jettySize=auto;html=1;" edge="1" parent="WIyWlLk6GJQsqaUBKTNV-1" source="V9kbop6HQoNJyVFFNIBV-107" target="SD3mACNuw7I6ulbQ2JE7-205">
          <mxGeometry relative="1" as="geometry" />
        </mxCell>
        <mxCell id="V9kbop6HQoNJyVFFNIBV-107" value="เมล็ด - x&lt;div&gt;= เมล็ด&lt;/div&gt;" style="rounded=0;whiteSpace=wrap;html=1;" vertex="1" parent="WIyWlLk6GJQsqaUBKTNV-1">
          <mxGeometry x="1354" y="341.5" width="70" height="43" as="geometry" />
        </mxCell>
        <mxCell id="V9kbop6HQoNJyVFFNIBV-114" value="" style="edgeStyle=orthogonalEdgeStyle;rounded=0;orthogonalLoop=1;jettySize=auto;html=1;" edge="1" parent="WIyWlLk6GJQsqaUBKTNV-1" source="V9kbop6HQoNJyVFFNIBV-108" target="SD3mACNuw7I6ulbQ2JE7-204">
          <mxGeometry relative="1" as="geometry" />
        </mxCell>
        <mxCell id="V9kbop6HQoNJyVFFNIBV-108" value="ถั่วแปบ - y&lt;div&gt;= ถั่วแปบ&lt;/div&gt;" style="rounded=0;whiteSpace=wrap;html=1;" vertex="1" parent="WIyWlLk6GJQsqaUBKTNV-1">
          <mxGeometry x="1354" y="449" width="70" height="43" as="geometry" />
        </mxCell>
        <mxCell id="V9kbop6HQoNJyVFFNIBV-115" value="" style="edgeStyle=orthogonalEdgeStyle;rounded=0;orthogonalLoop=1;jettySize=auto;html=1;" edge="1" parent="WIyWlLk6GJQsqaUBKTNV-1" source="V9kbop6HQoNJyVFFNIBV-109" target="SD3mACNuw7I6ulbQ2JE7-207">
          <mxGeometry relative="1" as="geometry" />
        </mxCell>
        <mxCell id="V9kbop6HQoNJyVFFNIBV-109" value="จิ้นส้ม - z&lt;div&gt;= จิ้นส้ม&lt;/div&gt;" style="rounded=0;whiteSpace=wrap;html=1;" vertex="1" parent="WIyWlLk6GJQsqaUBKTNV-1">
          <mxGeometry x="1354" y="558.5" width="70" height="43" as="geometry" />
        </mxCell>
        <mxCell id="V9kbop6HQoNJyVFFNIBV-121" style="edgeStyle=orthogonalEdgeStyle;rounded=0;orthogonalLoop=1;jettySize=auto;html=1;entryX=0.5;entryY=1;entryDx=0;entryDy=0;" edge="1" parent="WIyWlLk6GJQsqaUBKTNV-1" source="V9kbop6HQoNJyVFFNIBV-117" target="V9kbop6HQoNJyVFFNIBV-120">
          <mxGeometry relative="1" as="geometry" />
        </mxCell>
        <mxCell id="V9kbop6HQoNJyVFFNIBV-117" value="ทอนเงิน&lt;div&gt;t&lt;/div&gt;" style="shape=parallelogram;perimeter=parallelogramPerimeter;whiteSpace=wrap;html=1;fixedSize=1;" vertex="1" parent="WIyWlLk6GJQsqaUBKTNV-1">
          <mxGeometry x="-720" y="1752.75" width="90" height="44.5" as="geometry" />
        </mxCell>
        <mxCell id="V9kbop6HQoNJyVFFNIBV-122" style="edgeStyle=orthogonalEdgeStyle;rounded=0;orthogonalLoop=1;jettySize=auto;html=1;entryX=0;entryY=0.5;entryDx=0;entryDy=0;" edge="1" parent="WIyWlLk6GJQsqaUBKTNV-1" source="V9kbop6HQoNJyVFFNIBV-120" target="V9kbop6HQoNJyVFFNIBV-33">
          <mxGeometry relative="1" as="geometry" />
        </mxCell>
        <mxCell id="V9kbop6HQoNJyVFFNIBV-120" value="m - t = m" style="rounded=0;whiteSpace=wrap;html=1;" vertex="1" parent="WIyWlLk6GJQsqaUBKTNV-1">
          <mxGeometry x="-715" y="1617.5" width="80" height="45" as="geometry" />
        </mxCell>
        <mxCell id="V9kbop6HQoNJyVFFNIBV-131" value="" style="edgeStyle=orthogonalEdgeStyle;rounded=0;orthogonalLoop=1;jettySize=auto;html=1;" edge="1" parent="WIyWlLk6GJQsqaUBKTNV-1" source="V9kbop6HQoNJyVFFNIBV-124" target="V9kbop6HQoNJyVFFNIBV-130">
          <mxGeometry relative="1" as="geometry" />
        </mxCell>
        <mxCell id="V9kbop6HQoNJyVFFNIBV-124" value="จำนวน&lt;div&gt;= a1&lt;/div&gt;" style="rounded=0;whiteSpace=wrap;html=1;" vertex="1" parent="WIyWlLk6GJQsqaUBKTNV-1">
          <mxGeometry x="450" y="1330" width="90" height="40" as="geometry" />
        </mxCell>
        <mxCell id="V9kbop6HQoNJyVFFNIBV-142" value="" style="edgeStyle=orthogonalEdgeStyle;rounded=0;orthogonalLoop=1;jettySize=auto;html=1;" edge="1" parent="WIyWlLk6GJQsqaUBKTNV-1" source="V9kbop6HQoNJyVFFNIBV-126" target="V9kbop6HQoNJyVFFNIBV-138">
          <mxGeometry relative="1" as="geometry" />
        </mxCell>
        <mxCell id="V9kbop6HQoNJyVFFNIBV-126" value="จำนวน&lt;div&gt;= b1&lt;/div&gt;" style="rounded=0;whiteSpace=wrap;html=1;" vertex="1" parent="WIyWlLk6GJQsqaUBKTNV-1">
          <mxGeometry x="450" y="1435" width="90" height="40" as="geometry" />
        </mxCell>
        <mxCell id="V9kbop6HQoNJyVFFNIBV-146" style="edgeStyle=orthogonalEdgeStyle;rounded=0;orthogonalLoop=1;jettySize=auto;html=1;entryX=0;entryY=0.5;entryDx=0;entryDy=0;" edge="1" parent="WIyWlLk6GJQsqaUBKTNV-1" source="V9kbop6HQoNJyVFFNIBV-130" target="V9kbop6HQoNJyVFFNIBV-22">
          <mxGeometry relative="1" as="geometry">
            <Array as="points">
              <mxPoint x="240" y="1350" />
              <mxPoint x="240" y="1865" />
            </Array>
          </mxGeometry>
        </mxCell>
        <mxCell id="V9kbop6HQoNJyVFFNIBV-130" value="&lt;div&gt;แบงค์ 20 + a1&lt;/div&gt;&lt;div&gt;= แบงค์ 20&lt;/div&gt;" style="rounded=0;whiteSpace=wrap;html=1;" vertex="1" parent="WIyWlLk6GJQsqaUBKTNV-1">
          <mxGeometry x="300" y="1330" width="90" height="40" as="geometry" />
        </mxCell>
        <mxCell id="V9kbop6HQoNJyVFFNIBV-143" value="" style="edgeStyle=orthogonalEdgeStyle;rounded=0;orthogonalLoop=1;jettySize=auto;html=1;" edge="1" parent="WIyWlLk6GJQsqaUBKTNV-1" source="V9kbop6HQoNJyVFFNIBV-132" target="V9kbop6HQoNJyVFFNIBV-139">
          <mxGeometry relative="1" as="geometry" />
        </mxCell>
        <mxCell id="V9kbop6HQoNJyVFFNIBV-132" value="จำนวน&lt;div&gt;= c1&lt;/div&gt;" style="rounded=0;whiteSpace=wrap;html=1;" vertex="1" parent="WIyWlLk6GJQsqaUBKTNV-1">
          <mxGeometry x="450" y="1538.5" width="90" height="40" as="geometry" />
        </mxCell>
        <mxCell id="V9kbop6HQoNJyVFFNIBV-144" value="" style="edgeStyle=orthogonalEdgeStyle;rounded=0;orthogonalLoop=1;jettySize=auto;html=1;" edge="1" parent="WIyWlLk6GJQsqaUBKTNV-1" source="V9kbop6HQoNJyVFFNIBV-133" target="V9kbop6HQoNJyVFFNIBV-140">
          <mxGeometry relative="1" as="geometry" />
        </mxCell>
        <mxCell id="V9kbop6HQoNJyVFFNIBV-133" value="จำนวน&lt;div&gt;= d1&lt;/div&gt;" style="rounded=0;whiteSpace=wrap;html=1;" vertex="1" parent="WIyWlLk6GJQsqaUBKTNV-1">
          <mxGeometry x="450" y="1646" width="90" height="40" as="geometry" />
        </mxCell>
        <mxCell id="V9kbop6HQoNJyVFFNIBV-145" value="" style="edgeStyle=orthogonalEdgeStyle;rounded=0;orthogonalLoop=1;jettySize=auto;html=1;" edge="1" parent="WIyWlLk6GJQsqaUBKTNV-1" source="V9kbop6HQoNJyVFFNIBV-134" target="V9kbop6HQoNJyVFFNIBV-141">
          <mxGeometry relative="1" as="geometry" />
        </mxCell>
        <mxCell id="V9kbop6HQoNJyVFFNIBV-134" value="จำนวน&lt;div&gt;= e1&lt;/div&gt;" style="rounded=0;whiteSpace=wrap;html=1;" vertex="1" parent="WIyWlLk6GJQsqaUBKTNV-1">
          <mxGeometry x="450" y="1756" width="90" height="40" as="geometry" />
        </mxCell>
        <mxCell id="V9kbop6HQoNJyVFFNIBV-147" style="edgeStyle=orthogonalEdgeStyle;rounded=0;orthogonalLoop=1;jettySize=auto;html=1;" edge="1" parent="WIyWlLk6GJQsqaUBKTNV-1" source="V9kbop6HQoNJyVFFNIBV-138">
          <mxGeometry relative="1" as="geometry">
            <mxPoint x="240" y="1455" as="targetPoint" />
          </mxGeometry>
        </mxCell>
        <mxCell id="V9kbop6HQoNJyVFFNIBV-138" value="&lt;div&gt;แบงค์ 50 + b1&lt;/div&gt;&lt;div&gt;= แบงค์ 50&lt;/div&gt;" style="rounded=0;whiteSpace=wrap;html=1;" vertex="1" parent="WIyWlLk6GJQsqaUBKTNV-1">
          <mxGeometry x="300" y="1435" width="90" height="40" as="geometry" />
        </mxCell>
        <mxCell id="V9kbop6HQoNJyVFFNIBV-148" style="edgeStyle=orthogonalEdgeStyle;rounded=0;orthogonalLoop=1;jettySize=auto;html=1;" edge="1" parent="WIyWlLk6GJQsqaUBKTNV-1" source="V9kbop6HQoNJyVFFNIBV-139">
          <mxGeometry relative="1" as="geometry">
            <mxPoint x="240" y="1558.5" as="targetPoint" />
          </mxGeometry>
        </mxCell>
        <mxCell id="V9kbop6HQoNJyVFFNIBV-139" value="&lt;div&gt;แบงค์ 100 + c1&lt;/div&gt;&lt;div&gt;= แบงค์ 100&lt;/div&gt;" style="rounded=0;whiteSpace=wrap;html=1;" vertex="1" parent="WIyWlLk6GJQsqaUBKTNV-1">
          <mxGeometry x="300" y="1538.5" width="90" height="40" as="geometry" />
        </mxCell>
        <mxCell id="V9kbop6HQoNJyVFFNIBV-149" style="edgeStyle=orthogonalEdgeStyle;rounded=0;orthogonalLoop=1;jettySize=auto;html=1;" edge="1" parent="WIyWlLk6GJQsqaUBKTNV-1" source="V9kbop6HQoNJyVFFNIBV-140">
          <mxGeometry relative="1" as="geometry">
            <mxPoint x="240" y="1666" as="targetPoint" />
          </mxGeometry>
        </mxCell>
        <mxCell id="V9kbop6HQoNJyVFFNIBV-140" value="&lt;div&gt;แบงค์ 500 + d1&lt;/div&gt;&lt;div&gt;= แบงค์ 500&lt;/div&gt;" style="rounded=0;whiteSpace=wrap;html=1;" vertex="1" parent="WIyWlLk6GJQsqaUBKTNV-1">
          <mxGeometry x="300" y="1646" width="90" height="40" as="geometry" />
        </mxCell>
        <mxCell id="V9kbop6HQoNJyVFFNIBV-150" style="edgeStyle=orthogonalEdgeStyle;rounded=0;orthogonalLoop=1;jettySize=auto;html=1;" edge="1" parent="WIyWlLk6GJQsqaUBKTNV-1" source="V9kbop6HQoNJyVFFNIBV-141">
          <mxGeometry relative="1" as="geometry">
            <mxPoint x="240" y="1776" as="targetPoint" />
          </mxGeometry>
        </mxCell>
        <mxCell id="V9kbop6HQoNJyVFFNIBV-141" value="&lt;div&gt;แบงค์ 1000 + e1&lt;/div&gt;&lt;div&gt;= แบงค์ 1000&lt;/div&gt;" style="rounded=0;whiteSpace=wrap;html=1;" vertex="1" parent="WIyWlLk6GJQsqaUBKTNV-1">
          <mxGeometry x="300" y="1756" width="90" height="40" as="geometry" />
        </mxCell>
        <mxCell id="V9kbop6HQoNJyVFFNIBV-166" value="" style="edgeStyle=orthogonalEdgeStyle;rounded=0;orthogonalLoop=1;jettySize=auto;html=1;" edge="1" parent="WIyWlLk6GJQsqaUBKTNV-1" source="V9kbop6HQoNJyVFFNIBV-151" target="V9kbop6HQoNJyVFFNIBV-159">
          <mxGeometry relative="1" as="geometry" />
        </mxCell>
        <mxCell id="V9kbop6HQoNJyVFFNIBV-151" value="จำนวน&lt;div&gt;= w1&lt;/div&gt;" style="rounded=0;whiteSpace=wrap;html=1;" vertex="1" parent="WIyWlLk6GJQsqaUBKTNV-1">
          <mxGeometry x="1260" y="1330" width="90" height="40" as="geometry" />
        </mxCell>
        <mxCell id="V9kbop6HQoNJyVFFNIBV-165" value="" style="edgeStyle=orthogonalEdgeStyle;rounded=0;orthogonalLoop=1;jettySize=auto;html=1;" edge="1" parent="WIyWlLk6GJQsqaUBKTNV-1" source="V9kbop6HQoNJyVFFNIBV-152" target="V9kbop6HQoNJyVFFNIBV-160">
          <mxGeometry relative="1" as="geometry" />
        </mxCell>
        <mxCell id="V9kbop6HQoNJyVFFNIBV-152" value="จำนวน&lt;div&gt;= x1&lt;/div&gt;" style="rounded=0;whiteSpace=wrap;html=1;" vertex="1" parent="WIyWlLk6GJQsqaUBKTNV-1">
          <mxGeometry x="1260" y="1430" width="90" height="40" as="geometry" />
        </mxCell>
        <mxCell id="V9kbop6HQoNJyVFFNIBV-164" value="" style="edgeStyle=orthogonalEdgeStyle;rounded=0;orthogonalLoop=1;jettySize=auto;html=1;" edge="1" parent="WIyWlLk6GJQsqaUBKTNV-1" source="V9kbop6HQoNJyVFFNIBV-153" target="V9kbop6HQoNJyVFFNIBV-161">
          <mxGeometry relative="1" as="geometry" />
        </mxCell>
        <mxCell id="V9kbop6HQoNJyVFFNIBV-153" value="จำนวน&lt;div&gt;= y1&lt;/div&gt;" style="rounded=0;whiteSpace=wrap;html=1;" vertex="1" parent="WIyWlLk6GJQsqaUBKTNV-1">
          <mxGeometry x="1260" y="1530" width="90" height="40" as="geometry" />
        </mxCell>
        <mxCell id="V9kbop6HQoNJyVFFNIBV-163" value="" style="edgeStyle=orthogonalEdgeStyle;rounded=0;orthogonalLoop=1;jettySize=auto;html=1;" edge="1" parent="WIyWlLk6GJQsqaUBKTNV-1" source="V9kbop6HQoNJyVFFNIBV-154" target="V9kbop6HQoNJyVFFNIBV-162">
          <mxGeometry relative="1" as="geometry" />
        </mxCell>
        <mxCell id="V9kbop6HQoNJyVFFNIBV-154" value="จำนวน&lt;div&gt;= z1&lt;/div&gt;" style="rounded=0;whiteSpace=wrap;html=1;" vertex="1" parent="WIyWlLk6GJQsqaUBKTNV-1">
          <mxGeometry x="1260" y="1630" width="90" height="40" as="geometry" />
        </mxCell>
        <mxCell id="V9kbop6HQoNJyVFFNIBV-168" style="edgeStyle=orthogonalEdgeStyle;rounded=0;orthogonalLoop=1;jettySize=auto;html=1;entryX=1;entryY=0.5;entryDx=0;entryDy=0;" edge="1" parent="WIyWlLk6GJQsqaUBKTNV-1" source="V9kbop6HQoNJyVFFNIBV-159" target="V9kbop6HQoNJyVFFNIBV-22">
          <mxGeometry relative="1" as="geometry">
            <Array as="points">
              <mxPoint x="1550" y="1350" />
              <mxPoint x="1550" y="1865" />
            </Array>
          </mxGeometry>
        </mxCell>
        <mxCell id="V9kbop6HQoNJyVFFNIBV-159" value="เหรียญ 1 + w1&lt;div&gt;= เหรียญ 1&lt;/div&gt;" style="rounded=0;whiteSpace=wrap;html=1;" vertex="1" parent="WIyWlLk6GJQsqaUBKTNV-1">
          <mxGeometry x="1400" y="1330" width="90" height="40" as="geometry" />
        </mxCell>
        <mxCell id="V9kbop6HQoNJyVFFNIBV-169" style="edgeStyle=orthogonalEdgeStyle;rounded=0;orthogonalLoop=1;jettySize=auto;html=1;" edge="1" parent="WIyWlLk6GJQsqaUBKTNV-1" source="V9kbop6HQoNJyVFFNIBV-160">
          <mxGeometry relative="1" as="geometry">
            <mxPoint x="1550" y="1450" as="targetPoint" />
          </mxGeometry>
        </mxCell>
        <mxCell id="V9kbop6HQoNJyVFFNIBV-160" value="เหรียญ 2 + x1&lt;div&gt;= เหรียญ 2&lt;/div&gt;" style="rounded=0;whiteSpace=wrap;html=1;" vertex="1" parent="WIyWlLk6GJQsqaUBKTNV-1">
          <mxGeometry x="1400" y="1430" width="90" height="40" as="geometry" />
        </mxCell>
        <mxCell id="V9kbop6HQoNJyVFFNIBV-170" style="edgeStyle=orthogonalEdgeStyle;rounded=0;orthogonalLoop=1;jettySize=auto;html=1;" edge="1" parent="WIyWlLk6GJQsqaUBKTNV-1" source="V9kbop6HQoNJyVFFNIBV-161">
          <mxGeometry relative="1" as="geometry">
            <mxPoint x="1550" y="1550" as="targetPoint" />
          </mxGeometry>
        </mxCell>
        <mxCell id="V9kbop6HQoNJyVFFNIBV-161" value="เหรียญ 5 + y1&lt;div&gt;= เหรียญ 5&lt;/div&gt;" style="rounded=0;whiteSpace=wrap;html=1;" vertex="1" parent="WIyWlLk6GJQsqaUBKTNV-1">
          <mxGeometry x="1400" y="1530" width="90" height="40" as="geometry" />
        </mxCell>
        <mxCell id="V9kbop6HQoNJyVFFNIBV-171" style="edgeStyle=orthogonalEdgeStyle;rounded=0;orthogonalLoop=1;jettySize=auto;html=1;" edge="1" parent="WIyWlLk6GJQsqaUBKTNV-1" source="V9kbop6HQoNJyVFFNIBV-162">
          <mxGeometry relative="1" as="geometry">
            <mxPoint x="1550" y="1651" as="targetPoint" />
          </mxGeometry>
        </mxCell>
        <mxCell id="V9kbop6HQoNJyVFFNIBV-162" value="เหรียญ 10 + z1&lt;div&gt;= เหรียญ 10&lt;/div&gt;" style="rounded=0;whiteSpace=wrap;html=1;" vertex="1" parent="WIyWlLk6GJQsqaUBKTNV-1">
          <mxGeometry x="1400" y="1631" width="90" height="40" as="geometry" />
        </mxCell>
      </root>
    </mxGraphModel>
  </diagram>
</mxfile>
